<svg width="299" height="299" viewBox="0 0 299 299" fill="none" xmlns="http://www.w3.org/2000/svg">
<mask id="path-1-outside-1_2012_14" maskUnits="userSpaceOnUse" x="-0.555298" y="-0.103119" width="299" height="299" fill="black">
<rect fill="white" x="-0.555298" y="-0.103119" width="299" height="299"/>
<path fill-rule="evenodd" clip-rule="evenodd" d="M232.534 228.12C226.386 233.521 222.002 243.298 220.094 268.718L192.031 281.506C171.155 264.705 161.576 261.237 154.551 261.79C150.746 262.089 146.143 263.691 139.369 267.99C133.107 271.963 125.967 277.586 116.706 285.15L90.503 275.167C85.913 250.433 81.5927 240.07 74.7922 234.214C68.2603 228.589 57.0116 225.04 32.0066 223.157L17.8863 193.251C33.3059 173.831 37.4639 163.422 36.8026 154.967C36.4412 150.345 34.5208 144.918 29.6059 137.494C25.8894 131.88 20.7747 125.585 14.0329 118.094L26.2824 85.8495C36.0151 84.675 43.5828 83.328 49.5642 81.6037C57.4979 79.3165 61.5558 76.664 64.0297 73.8639C66.5219 71.0431 68.6466 66.6701 69.9678 58.5665C71.0444 51.9627 71.4731 43.6558 71.4829 32.9119L101.592 19.1958C122.355 33.6337 133.412 37.9644 142.467 37.4446C151.778 36.9101 162.291 31.1003 181.427 14.4583L212.262 26.2045C213.637 37.1151 215.162 45.6042 217.149 52.3684C219.582 60.6466 222.448 65.4049 225.729 68.5808C228.993 71.74 233.84 74.4671 242.284 76.6165C249.407 78.4297 258.457 79.6783 270.246 80.6115L283.658 109.017C266.952 128.969 262.785 139.941 263.45 148.422C263.809 153.002 265.68 158.255 270.255 165.239C273.705 170.507 278.405 176.331 284.52 183.176L272.301 215.347C263.273 216.88 255.9 218.332 249.702 220.061C241.179 222.439 236.036 225.044 232.534 228.12ZM121.763 222.871C162.02 238.204 207.085 218 222.419 177.743C237.752 137.487 217.548 92.4216 177.291 77.088C137.034 61.7544 91.9694 81.9587 76.6358 122.216C61.3022 162.472 81.5065 207.537 121.763 222.871Z"/>
</mask>
<path fill-rule="evenodd" clip-rule="evenodd" d="M232.534 228.12C226.386 233.521 222.002 243.298 220.094 268.718L192.031 281.506C171.155 264.705 161.576 261.237 154.551 261.79C150.746 262.089 146.143 263.691 139.369 267.99C133.107 271.963 125.967 277.586 116.706 285.15L90.503 275.167C85.913 250.433 81.5927 240.07 74.7922 234.214C68.2603 228.589 57.0116 225.04 32.0066 223.157L17.8863 193.251C33.3059 173.831 37.4639 163.422 36.8026 154.967C36.4412 150.345 34.5208 144.918 29.6059 137.494C25.8894 131.88 20.7747 125.585 14.0329 118.094L26.2824 85.8495C36.0151 84.675 43.5828 83.328 49.5642 81.6037C57.4979 79.3165 61.5558 76.664 64.0297 73.8639C66.5219 71.0431 68.6466 66.6701 69.9678 58.5665C71.0444 51.9627 71.4731 43.6558 71.4829 32.9119L101.592 19.1958C122.355 33.6337 133.412 37.9644 142.467 37.4446C151.778 36.9101 162.291 31.1003 181.427 14.4583L212.262 26.2045C213.637 37.1151 215.162 45.6042 217.149 52.3684C219.582 60.6466 222.448 65.4049 225.729 68.5808C228.993 71.74 233.84 74.4671 242.284 76.6165C249.407 78.4297 258.457 79.6783 270.246 80.6115L283.658 109.017C266.952 128.969 262.785 139.941 263.45 148.422C263.809 153.002 265.68 158.255 270.255 165.239C273.705 170.507 278.405 176.331 284.52 183.176L272.301 215.347C263.273 216.88 255.9 218.332 249.702 220.061C241.179 222.439 236.036 225.044 232.534 228.12ZM121.763 222.871C162.02 238.204 207.085 218 222.419 177.743C237.752 137.487 217.548 92.4216 177.291 77.088C137.034 61.7544 91.9694 81.9587 76.6358 122.216C61.3022 162.472 81.5065 207.537 121.763 222.871Z" fill="#F8F8F8"/>
<path d="M220.094 268.718L225.07 279.638L231.529 276.694L232.06 269.616L220.094 268.718ZM232.534 228.12L240.454 237.136L240.454 237.136L232.534 228.12ZM192.031 281.506L184.507 290.854L190.273 295.494L197.007 292.426L192.031 281.506ZM154.551 261.79L153.611 249.826H153.611L154.551 261.79ZM139.369 267.99L145.798 278.122L145.798 278.122L139.369 267.99ZM116.706 285.15L112.433 296.363L118.92 298.834L124.296 294.444L116.706 285.15ZM90.503 275.167L78.7045 277.356L79.934 283.982L86.2308 286.381L90.503 275.167ZM74.7922 234.214L66.9618 243.307L66.9619 243.307L74.7922 234.214ZM32.0066 223.157L21.1554 228.281L24.1384 234.599L31.1055 235.123L32.0066 223.157ZM17.8863 193.251L8.48844 185.789L3.85065 191.63L7.03504 198.375L17.8863 193.251ZM36.8026 154.967L48.7661 154.031L48.7661 154.031L36.8026 154.967ZM29.6059 137.494L19.6 144.118L19.6 144.118L29.6059 137.494ZM14.0329 118.094L2.81509 113.832L0.214508 120.677L5.11287 126.121L14.0329 118.094ZM26.2824 85.8495L24.8446 73.936L17.6413 74.8053L15.0646 81.5879L26.2824 85.8495ZM49.5642 81.6037L52.8882 93.1341L52.8883 93.1341L49.5642 81.6037ZM64.0297 73.8639L55.0368 65.9186L55.0367 65.9187L64.0297 73.8639ZM69.9678 58.5665L81.8114 60.4975L81.8114 60.4973L69.9678 58.5665ZM71.4829 32.9119L66.5082 21.9916L59.4898 25.1888L59.4829 32.901L71.4829 32.9119ZM101.592 19.1958L108.443 9.34367L102.834 5.44353L96.6175 8.27555L101.592 19.1958ZM142.467 37.4446L141.779 25.4643H141.779L142.467 37.4446ZM181.427 14.4583L185.699 3.2444L178.979 0.684351L173.552 5.40356L181.427 14.4583ZM212.262 26.2045L224.167 24.7034L223.266 17.5554L216.534 14.9906L212.262 26.2045ZM217.149 52.3684L205.636 55.7516L205.636 55.7517L217.149 52.3684ZM225.729 68.5808L217.384 77.2034L217.384 77.2034L225.729 68.5808ZM242.284 76.6165L245.244 64.9874L245.244 64.9873L242.284 76.6165ZM270.246 80.6115L281.097 75.488L278.128 69.1979L271.193 68.649L270.246 80.6115ZM283.658 109.017L292.859 116.72L297.787 110.834L294.509 103.893L283.658 109.017ZM263.45 148.422L275.414 147.484L275.414 147.484L263.45 148.422ZM270.255 165.239L280.293 158.664L270.255 165.239ZM284.52 183.176L295.738 187.437L298.327 180.619L293.469 175.181L284.52 183.176ZM272.301 215.347L274.309 227.178L281.08 226.029L283.519 219.608L272.301 215.347ZM249.702 220.061L252.926 231.62L252.927 231.62L249.702 220.061ZM222.419 177.743L211.205 173.472L222.419 177.743ZM121.763 222.871L117.492 234.085L121.763 222.871ZM177.291 77.088L173.02 88.3021L177.291 77.088ZM76.6358 122.216L65.4217 117.944L76.6358 122.216ZM232.06 269.616C233.945 244.506 238.166 239.145 240.454 237.136L224.615 219.104C214.606 227.896 210.058 242.09 208.128 267.82L232.06 269.616ZM197.007 292.426L225.07 279.638L215.118 257.798L187.055 270.586L197.007 292.426ZM155.492 273.753C157.302 273.61 163.482 273.933 184.507 290.854L199.555 272.157C178.827 255.476 165.851 248.865 153.611 249.826L155.492 273.753ZM145.798 278.122C151.747 274.347 154.425 273.836 155.492 273.753L153.611 249.826C147.068 250.341 140.539 253.035 132.939 257.857L145.798 278.122ZM124.296 294.444C133.609 286.838 140.226 281.657 145.798 278.122L132.939 257.857C125.987 262.269 118.326 268.333 109.115 275.855L124.296 294.444ZM86.2308 286.381L112.433 296.363L120.978 273.936L94.7753 263.953L86.2308 286.381ZM66.9619 243.307C70.1855 246.083 74.0536 252.295 78.7045 277.356L102.302 272.977C97.7724 248.571 92.9999 234.056 82.6226 225.12L66.9619 243.307ZM31.1055 235.123C56.1395 237.009 63.6935 240.492 66.9618 243.307L82.6226 225.12C72.8271 216.685 57.8837 213.072 32.9078 211.191L31.1055 235.123ZM7.03504 198.375L21.1554 228.281L42.8579 218.034L28.7376 188.128L7.03504 198.375ZM24.8391 155.902C25.1053 159.305 23.8674 166.42 8.48844 185.789L27.2842 200.713C42.7444 181.242 49.8225 167.539 48.7661 154.031L24.8391 155.902ZM19.6 144.118C23.8624 150.556 24.6922 154.023 24.8392 155.902L48.7661 154.031C48.1902 146.668 45.1792 139.279 39.6117 130.869L19.6 144.118ZM5.11287 126.121C11.6896 133.429 16.3576 139.221 19.6 144.118L39.6117 130.869C35.4212 124.54 29.8597 117.742 22.9529 110.066L5.11287 126.121ZM15.0646 81.5879L2.81509 113.832L25.2506 122.355L37.5001 90.1112L15.0646 81.5879ZM46.2402 70.0732C41.1584 71.5382 34.3185 72.7927 24.8446 73.936L27.7201 97.7631C37.7118 96.5573 46.0073 95.1177 52.8882 93.1341L46.2402 70.0732ZM55.0367 65.9187C54.6014 66.4114 52.9007 68.1531 46.2402 70.0732L52.8883 93.1341C62.0952 90.4799 68.5103 86.9166 73.0227 81.8091L55.0367 65.9187ZM58.1242 56.6355C57.0101 63.4683 55.4946 65.4004 55.0368 65.9186L73.0227 81.8091C77.5491 76.6858 80.283 69.8718 81.8114 60.4975L58.1242 56.6355ZM59.4829 32.901C59.4733 43.4461 59.0444 50.991 58.1241 56.6356L81.8114 60.4973C83.0444 52.9343 83.473 43.8654 83.4829 32.9228L59.4829 32.901ZM96.6175 8.27555L66.5082 21.9916L76.4575 43.8322L106.567 30.1161L96.6175 8.27555ZM141.779 25.4643C137.234 25.7252 129.239 23.8042 108.443 9.34367L94.7413 29.048C115.472 43.4632 129.59 50.2035 143.154 49.4249L141.779 25.4643ZM173.552 5.40356C154.267 22.1757 146.559 25.1899 141.779 25.4643L143.154 49.4249C156.996 48.6303 170.316 40.0249 189.302 23.513L173.552 5.40356ZM216.534 14.9906L185.699 3.2444L177.155 25.6722L207.99 37.4184L216.534 14.9906ZM228.663 48.9853C226.944 43.1366 225.515 35.3887 224.167 24.7034L200.356 27.7056C201.76 38.8415 203.379 48.0719 205.636 55.7516L228.663 48.9853ZM234.075 59.9582C232.766 58.6908 230.733 56.0315 228.662 48.9852L205.636 55.7517C208.431 65.2616 212.13 72.119 217.384 77.2034L234.075 59.9582ZM245.244 64.9873C238.078 63.1631 235.364 61.2062 234.075 59.9581L217.384 77.2034C222.622 82.2738 229.603 85.7712 239.324 88.2456L245.244 64.9873ZM271.193 68.649C259.658 67.7358 251.392 66.5525 245.244 64.9874L239.323 88.2456C247.421 90.3069 257.257 91.6208 269.299 92.5741L271.193 68.649ZM294.509 103.893L281.097 75.488L259.395 85.735L272.807 114.14L294.509 103.893ZM275.414 147.484C275.151 144.139 276.337 136.453 292.859 116.72L274.457 101.313C257.567 121.485 250.419 135.743 251.487 149.36L275.414 147.484ZM280.293 158.664C276.376 152.685 275.561 149.371 275.414 147.484L251.487 149.359C252.057 156.632 254.984 163.826 260.217 171.815L280.293 158.664ZM293.469 175.181C287.522 168.524 283.27 163.208 280.293 158.664L260.217 171.815C264.141 177.806 269.289 184.138 275.571 191.17L293.469 175.181ZM283.519 219.608L295.738 187.437L273.302 178.915L261.083 211.087L283.519 219.608ZM252.927 231.62C258.503 230.065 265.375 228.694 274.309 227.178L270.293 203.517C261.171 205.065 253.298 206.6 246.478 208.503L252.927 231.62ZM240.454 237.136C242.047 235.736 245.253 233.761 252.926 231.62L246.478 208.503C237.106 211.117 230.024 214.352 224.615 219.104L240.454 237.136ZM211.205 173.472C198.23 207.535 160.098 224.631 126.035 211.657L117.492 234.085C163.942 251.778 215.94 228.465 233.633 182.015L211.205 173.472ZM173.02 88.3021C207.083 101.277 224.179 139.409 211.205 173.472L233.633 182.015C251.325 135.565 228.013 83.5665 181.563 65.8739L173.02 88.3021ZM87.8499 126.487C100.824 92.4234 138.956 75.3275 173.02 88.3021L181.563 65.8739C135.112 48.1813 83.1143 71.494 65.4217 117.944L87.8499 126.487ZM126.035 211.657C91.9712 198.682 74.8753 160.55 87.8499 126.487L65.4217 117.944C47.7291 164.394 71.0418 216.392 117.492 234.085L126.035 211.657Z" fill="#D2D2D2" mask="url(#path-1-outside-1_2012_14)"/>
</svg>
