<svg width="299" height="299" viewBox="0 0 299 299" fill="none" xmlns="http://www.w3.org/2000/svg">
<mask id="path-1-outside-1_17_134" maskUnits="userSpaceOnUse" x="0.283813" y="0.5" width="299" height="299" fill="black">
<rect fill="white" x="0.283813" y="0.5" width="299" height="299"/>
<path fill-rule="evenodd" clip-rule="evenodd" d="M232.785 228.162C226.637 233.562 222.253 243.34 220.345 268.76L192.282 281.548C171.406 264.746 161.827 261.279 154.802 261.831C150.997 262.13 146.394 263.733 139.62 268.031C133.358 272.005 126.218 277.628 116.957 285.191L90.754 275.208C86.1639 250.475 81.8437 240.111 75.0432 234.255C68.5112 228.63 57.2626 225.082 32.2576 223.199L18.1372 193.293C33.5568 173.873 37.7148 163.464 37.0536 155.008C36.6921 150.387 34.7717 144.959 29.8568 137.536C26.1403 131.922 21.0256 125.627 14.2838 118.135L26.5333 85.8913C36.2661 84.7167 43.8338 83.3697 49.8152 81.6454C57.7489 79.3582 61.8068 76.7057 64.2807 73.9056C66.7728 71.0848 68.8975 66.7118 70.2187 58.6082C71.2953 52.0044 71.7241 43.6975 71.7338 32.9536L101.843 19.2376C122.606 33.6754 133.663 38.0061 142.718 37.4863C152.029 36.9518 162.542 31.142 181.678 14.5L212.513 26.2462C213.888 37.1568 215.413 45.6459 217.4 52.4101C219.833 60.6883 222.699 65.4466 225.98 68.6225C229.244 71.7817 234.091 74.5089 242.535 76.6582C249.658 78.4714 258.708 79.7201 270.497 80.6533L283.909 109.058C267.203 129.011 263.036 139.983 263.701 148.463C264.06 153.043 265.931 158.297 270.506 165.281C273.956 170.549 278.656 176.373 284.771 183.217L272.552 215.389C263.524 216.921 256.151 218.374 249.953 220.103C241.43 222.48 236.287 225.086 232.785 228.162ZM122.014 222.913C162.271 238.246 207.336 218.042 222.67 177.785C238.003 137.528 217.799 92.4633 177.542 77.1297C137.285 61.7961 92.2203 82.0004 76.8868 122.257C61.5532 162.514 81.7575 207.579 122.014 222.913Z"/>
</mask>
<path fill-rule="evenodd" clip-rule="evenodd" d="M232.785 228.162C226.637 233.562 222.253 243.34 220.345 268.76L192.282 281.548C171.406 264.746 161.827 261.279 154.802 261.831C150.997 262.13 146.394 263.733 139.62 268.031C133.358 272.005 126.218 277.628 116.957 285.191L90.754 275.208C86.1639 250.475 81.8437 240.111 75.0432 234.255C68.5112 228.63 57.2626 225.082 32.2576 223.199L18.1372 193.293C33.5568 173.873 37.7148 163.464 37.0536 155.008C36.6921 150.387 34.7717 144.959 29.8568 137.536C26.1403 131.922 21.0256 125.627 14.2838 118.135L26.5333 85.8913C36.2661 84.7167 43.8338 83.3697 49.8152 81.6454C57.7489 79.3582 61.8068 76.7057 64.2807 73.9056C66.7728 71.0848 68.8975 66.7118 70.2187 58.6082C71.2953 52.0044 71.7241 43.6975 71.7338 32.9536L101.843 19.2376C122.606 33.6754 133.663 38.0061 142.718 37.4863C152.029 36.9518 162.542 31.142 181.678 14.5L212.513 26.2462C213.888 37.1568 215.413 45.6459 217.4 52.4101C219.833 60.6883 222.699 65.4466 225.98 68.6225C229.244 71.7817 234.091 74.5089 242.535 76.6582C249.658 78.4714 258.708 79.7201 270.497 80.6533L283.909 109.058C267.203 129.011 263.036 139.983 263.701 148.463C264.06 153.043 265.931 158.297 270.506 165.281C273.956 170.549 278.656 176.373 284.771 183.217L272.552 215.389C263.524 216.921 256.151 218.374 249.953 220.103C241.43 222.48 236.287 225.086 232.785 228.162ZM122.014 222.913C162.271 238.246 207.336 218.042 222.67 177.785C238.003 137.528 217.799 92.4633 177.542 77.1297C137.285 61.7961 92.2203 82.0004 76.8868 122.257C61.5532 162.514 81.7575 207.579 122.014 222.913Z" fill="#A3DDFF"/>
<path d="M220.345 268.76L225.321 279.679L231.78 276.736L232.311 269.658L220.345 268.76ZM232.785 228.162L240.704 237.177L240.705 237.177L232.785 228.162ZM192.282 281.548L184.758 290.896L190.524 295.536L197.258 292.467L192.282 281.548ZM154.802 261.831L153.862 249.868H153.862L154.802 261.831ZM139.62 268.031L146.049 278.164L146.049 278.163L139.62 268.031ZM116.957 285.191L112.684 296.405L119.171 298.876L124.547 294.486L116.957 285.191ZM90.754 275.208L78.9554 277.398L80.1849 284.023L86.4817 286.422L90.754 275.208ZM75.0432 234.255L67.2128 243.348L67.2128 243.348L75.0432 234.255ZM32.2576 223.199L21.4063 228.322L24.3894 234.64L31.3564 235.165L32.2576 223.199ZM18.1372 193.293L8.73938 185.831L4.10159 191.672L7.28599 198.416L18.1372 193.293ZM37.0536 155.008L49.017 154.073L49.017 154.073L37.0536 155.008ZM29.8568 137.536L19.851 144.16L19.851 144.16L29.8568 137.536ZM14.2838 118.135L3.06604 113.874L0.465454 120.719L5.36382 126.162L14.2838 118.135ZM26.5333 85.8913L25.0956 73.9777L17.8923 74.847L15.3155 81.6296L26.5333 85.8913ZM49.8152 81.6454L53.1391 93.1758L53.1392 93.1758L49.8152 81.6454ZM64.2807 73.9056L55.2877 65.9603L55.2877 65.9604L64.2807 73.9056ZM70.2187 58.6082L82.0623 60.5392L82.0624 60.5391L70.2187 58.6082ZM71.7338 32.9536L66.7592 22.0333L59.7408 25.2305L59.7338 32.9428L71.7338 32.9536ZM101.843 19.2376L108.694 9.38539L103.085 5.48525L96.8685 8.31726L101.843 19.2376ZM142.718 37.4863L142.03 25.506H142.03L142.718 37.4863ZM181.678 14.5L185.95 3.28611L179.23 0.726068L173.803 5.44527L181.678 14.5ZM212.513 26.2462L224.418 24.7452L223.517 17.5971L216.785 15.0324L212.513 26.2462ZM217.4 52.4101L205.887 55.7933L205.887 55.7934L217.4 52.4101ZM225.98 68.6225L217.635 77.2451L217.635 77.2451L225.98 68.6225ZM242.535 76.6582L245.495 65.0291L245.495 65.029L242.535 76.6582ZM270.497 80.6533L281.348 75.5298L278.378 69.2396L271.444 68.6907L270.497 80.6533ZM283.909 109.058L293.11 116.762L298.037 110.876L294.76 103.935L283.909 109.058ZM263.701 148.463L275.665 147.526L275.664 147.526L263.701 148.463ZM270.506 165.281L280.544 158.706L270.506 165.281ZM284.771 183.217L295.989 187.478L298.578 180.661L293.72 175.223L284.771 183.217ZM272.552 215.389L274.56 227.22L281.331 226.071L283.77 219.65L272.552 215.389ZM249.953 220.103L253.177 231.662L253.178 231.662L249.953 220.103ZM222.67 177.785L211.456 173.514L222.67 177.785ZM122.014 222.913L117.743 234.127L122.014 222.913ZM177.542 77.1297L173.271 88.3438L177.542 77.1297ZM76.8868 122.257L65.6727 117.986L76.8868 122.257ZM232.311 269.658C234.196 244.548 238.417 239.187 240.704 237.177L224.866 219.146C214.856 227.938 210.309 242.132 208.379 267.862L232.311 269.658ZM197.258 292.467L225.321 279.679L215.369 257.84L187.306 270.628L197.258 292.467ZM155.743 273.794C157.552 273.652 163.733 273.975 184.758 290.896L199.806 272.199C179.078 255.518 166.102 248.906 153.862 249.868L155.743 273.794ZM146.049 278.163C151.998 274.389 154.676 273.878 155.743 273.794L153.862 249.868C147.319 250.382 140.79 253.077 133.19 257.899L146.049 278.163ZM124.547 294.486C133.86 286.88 140.477 281.699 146.049 278.164L133.19 257.899C126.238 262.311 118.577 268.375 109.366 275.897L124.547 294.486ZM86.4817 286.422L112.684 296.405L121.229 273.977L95.0262 263.995L86.4817 286.422ZM67.2128 243.348C70.4365 246.124 74.3046 252.337 78.9554 277.398L102.553 273.019C98.0233 248.613 93.2508 234.098 82.8736 225.162L67.2128 243.348ZM31.3564 235.165C56.3905 237.05 63.9444 240.534 67.2128 243.348L82.8736 225.162C73.0781 216.727 58.1346 213.114 33.1587 211.233L31.3564 235.165ZM7.28599 198.416L21.4063 228.322L43.1088 218.075L28.9885 188.169L7.28599 198.416ZM25.0901 155.944C25.3562 159.347 24.1183 166.462 8.73938 185.831L27.5351 200.755C42.9954 181.283 50.0734 167.581 49.017 154.073L25.0901 155.944ZM19.851 144.16C24.1134 150.598 24.9431 154.064 25.0901 155.944L49.017 154.073C48.4412 146.71 45.4301 139.32 39.8626 130.911L19.851 144.16ZM5.36382 126.162C11.9405 133.471 16.6085 139.262 19.851 144.16L39.8626 130.911C35.6721 124.582 30.1107 117.783 23.2038 110.108L5.36382 126.162ZM15.3155 81.6296L3.06604 113.874L25.5016 122.397L37.7511 90.1529L15.3155 81.6296ZM46.4912 70.115C41.4093 71.5799 34.5694 72.8344 25.0956 73.9777L27.9711 97.8048C37.9627 96.599 46.2583 95.1595 53.1391 93.1758L46.4912 70.115ZM55.2877 65.9604C54.8523 66.4531 53.1517 68.1948 46.4911 70.115L53.1392 93.1758C62.3461 90.5216 68.7612 86.9583 73.2737 81.8508L55.2877 65.9604ZM58.3751 56.6772C57.2611 63.51 55.7456 65.4421 55.2877 65.9603L73.2736 81.8508C77.8001 76.7275 80.5339 69.9135 82.0623 60.5392L58.3751 56.6772ZM59.7338 32.9428C59.7243 43.4878 59.2953 51.0327 58.3751 56.6773L82.0624 60.5391C83.2954 52.976 83.7239 43.9072 83.7338 32.9645L59.7338 32.9428ZM96.8685 8.31726L66.7592 22.0333L76.7085 43.8739L106.818 30.1579L96.8685 8.31726ZM142.03 25.506C137.485 25.767 129.489 23.8459 108.694 9.38539L94.9922 29.0897C115.723 43.505 129.841 50.2452 143.405 49.4666L142.03 25.506ZM173.803 5.44527C154.518 22.2175 146.81 25.2316 142.03 25.506L143.405 49.4666C157.247 48.672 170.567 40.0666 189.553 23.5547L173.803 5.44527ZM216.785 15.0324L185.95 3.28611L177.406 25.7139L208.241 37.4601L216.785 15.0324ZM228.913 49.027C227.195 43.1783 225.766 35.4304 224.418 24.7452L200.607 27.7473C202.011 38.8832 203.63 48.1136 205.887 55.7933L228.913 49.027ZM234.326 59.9999C233.016 58.7325 230.984 56.0732 228.913 49.0269L205.887 55.7934C208.682 65.3033 212.381 72.1607 217.635 77.2451L234.326 59.9999ZM245.495 65.029C238.329 63.2048 235.615 61.2479 234.326 59.9999L217.635 77.2451C222.873 82.3155 229.854 85.8129 239.575 88.2873L245.495 65.029ZM271.444 68.6907C259.909 67.7775 251.643 66.5942 245.495 65.0291L239.574 88.2873C247.672 90.3486 257.508 91.6626 269.55 92.6158L271.444 68.6907ZM294.76 103.935L281.348 75.5298L259.646 85.7768L273.058 114.182L294.76 103.935ZM275.664 147.526C275.402 144.181 276.588 136.494 293.11 116.762L274.708 101.355C257.818 121.527 250.67 135.784 251.738 149.401L275.664 147.526ZM280.544 158.706C276.627 152.726 275.812 149.413 275.665 147.526L251.738 149.401C252.308 156.674 255.235 163.868 260.468 171.857L280.544 158.706ZM293.72 175.223C287.773 168.566 283.521 163.25 280.544 158.706L260.468 171.857C264.392 177.847 269.54 184.18 275.822 191.212L293.72 175.223ZM283.77 219.65L295.989 187.478L273.553 178.957L261.333 211.128L283.77 219.65ZM253.178 231.662C258.754 230.106 265.626 228.736 274.56 227.22L270.544 203.558C261.422 205.107 253.549 206.642 246.729 208.544L253.178 231.662ZM240.705 237.177C242.298 235.778 245.504 233.802 253.177 231.662L246.729 208.544C237.357 211.159 230.275 214.394 224.866 219.146L240.705 237.177ZM211.456 173.514C198.481 207.577 160.349 224.673 126.286 211.699L117.743 234.127C164.193 251.819 216.191 228.507 233.884 182.056L211.456 173.514ZM173.271 88.3438C207.334 101.318 224.43 139.45 211.456 173.514L233.884 182.056C251.576 135.606 228.264 83.6082 181.814 65.9156L173.271 88.3438ZM88.1008 126.529C101.075 92.4651 139.207 75.3692 173.271 88.3438L181.814 65.9156C135.363 48.223 83.3653 71.5357 65.6727 117.986L88.1008 126.529ZM126.286 211.699C92.2222 198.724 75.1263 160.592 88.1008 126.529L65.6727 117.986C47.9801 164.436 71.2927 216.434 117.743 234.127L126.286 211.699Z" fill="#6126D8" mask="url(#path-1-outside-1_17_134)"/>
</svg>
