<svg width="600" height="420" viewBox="0 0 600 420" fill="none" xmlns="http://www.w3.org/2000/svg">
<path d="M495.87 280.296L499.099 278.824L499.365 275.285C501.261 250.02 505.563 242.451 509.781 238.746L505.822 234.238L509.781 238.746C512.329 236.508 516.503 234.218 524.602 231.959C530.489 230.316 537.612 228.905 546.592 227.381L549.978 226.806L551.197 223.596L563.416 191.424L564.711 188.015L562.282 185.296C556.251 178.546 551.775 172.976 548.561 168.069C544.315 161.588 542.973 157.304 542.719 154.071C542.256 148.158 544.932 138.829 561.546 118.986L564.01 116.043L562.371 112.573L548.959 84.1676L547.474 81.0225L544.007 80.7481C532.345 79.8249 523.687 78.6089 517.052 76.9197L515.589 82.6647L517.051 76.9197C509.246 74.933 505.466 72.5909 503.19 70.3873C500.894 68.1657 498.445 64.4569 496.193 56.7947C494.34 50.4882 492.863 42.3697 491.502 31.5718L491.051 27.9978L487.685 26.7154L456.85 14.9692L453.49 13.6891L450.777 16.0487C431.567 32.7559 422.456 37.1678 415.41 37.5723L415.754 43.5624L415.41 37.5723C408.61 37.9626 399.084 34.8368 378.305 20.3876L375.501 18.4375L372.392 19.8535L342.283 33.5696L338.774 35.1682L338.77 39.0243C338.761 49.6687 338.332 57.5946 337.333 63.7188C336.116 71.187 334.296 74.3396 332.821 76.009L332.821 76.0091C331.366 77.6555 328.487 79.8526 321.19 81.9563C315.658 83.5509 308.454 84.8516 298.851 86.0106L295.249 86.4452L293.961 89.8365L282.584 119.784L292.282 126.306C304.242 115.168 321.872 107.973 341.737 107.973C348.963 107.973 355.903 108.926 362.385 110.679L366.012 111.66L368.478 108.826C387.736 86.6945 419.448 77.7688 448.443 88.8129C485.603 102.967 504.253 144.565 490.099 181.726C481.288 204.86 461.843 220.825 439.427 226.163L434.817 227.26V231.999V270.982V274.765L438.23 276.396C443.571 278.949 450.916 283.734 461.557 292.298L464.439 294.618L467.807 293.084L495.87 280.296Z" fill="#A3DDFF" stroke="#6126D8" stroke-width="12"/>
<path d="M49.0812 398.04C44.7812 398.04 41.1312 397.09 38.1312 395.19C35.1312 393.29 32.8412 390.65 31.2612 387.27C29.7012 383.89 28.9212 379.98 28.9212 375.54C28.9212 371.1 29.7012 367.19 31.2612 363.81C32.8412 360.43 35.1312 357.79 38.1312 355.89C41.1312 353.99 44.7812 353.04 49.0812 353.04C53.4012 353.04 57.0612 353.99 60.0612 355.89C63.0612 357.79 65.3412 360.43 66.9012 363.81C68.4612 367.19 69.2412 371.1 69.2412 375.54C69.2412 379.98 68.4612 383.89 66.9012 387.27C65.3412 390.65 63.0612 393.29 60.0612 395.19C57.0612 397.09 53.4012 398.04 49.0812 398.04ZM49.0812 392.94C52.3012 392.96 54.9812 392.24 57.1212 390.78C59.2812 389.3 60.8912 387.25 61.9512 384.63C63.0312 382.01 63.5712 378.98 63.5712 375.54C63.5712 372.08 63.0312 369.05 61.9512 366.45C60.8912 363.85 59.2812 361.82 57.1212 360.36C54.9812 358.9 52.3012 358.16 49.0812 358.14C45.8612 358.12 43.1812 358.84 41.0412 360.3C38.9212 361.76 37.3212 363.8 36.2412 366.42C35.1612 369.04 34.6112 372.08 34.5912 375.54C34.5712 378.98 35.1012 382 36.1812 384.6C37.2612 387.2 38.8712 389.24 41.0112 390.72C43.1712 392.18 45.8612 392.92 49.0812 392.94ZM91.9465 398.04C88.9065 398.04 86.3465 397.29 84.2665 395.79C82.1865 394.27 80.6065 392.22 79.5265 389.64C78.4665 387.04 77.9365 384.13 77.9365 380.91C77.9365 377.65 78.4665 374.73 79.5265 372.15C80.6065 369.57 82.1865 367.54 84.2665 366.06C86.3665 364.58 88.9365 363.84 91.9765 363.84C94.9765 363.84 97.5565 364.59 99.7165 366.09C101.897 367.57 103.567 369.6 104.727 372.18C105.887 374.76 106.467 377.67 106.467 380.91C106.467 384.15 105.887 387.06 104.727 389.64C103.567 392.22 101.897 394.27 99.7165 395.79C97.5565 397.29 94.9665 398.04 91.9465 398.04ZM77.0365 411.54V364.74H81.8065V388.59H82.4065V411.54H77.0365ZM91.2865 393.15C93.4265 393.15 95.1965 392.61 96.5965 391.53C97.9965 390.45 99.0465 388.99 99.7465 387.15C100.447 385.29 100.797 383.21 100.797 380.91C100.797 378.63 100.447 376.57 99.7465 374.73C99.0665 372.89 98.0065 371.43 96.5665 370.35C95.1465 369.27 93.3365 368.73 91.1365 368.73C89.0365 368.73 87.2965 369.25 85.9165 370.29C84.5365 371.31 83.5065 372.74 82.8265 374.58C82.1465 376.4 81.8065 378.51 81.8065 380.91C81.8065 383.27 82.1365 385.38 82.7965 387.24C83.4765 389.08 84.5165 390.53 85.9165 391.59C87.3165 392.63 89.1065 393.15 91.2865 393.15ZM126.614 398.01C122.754 398.01 119.584 397.17 117.104 395.49C114.644 393.79 113.134 391.42 112.574 388.38L118.034 387.51C118.474 389.27 119.484 390.67 121.064 391.71C122.644 392.73 124.604 393.24 126.944 393.24C129.164 393.24 130.904 392.78 132.164 391.86C133.424 390.94 134.054 389.69 134.054 388.11C134.054 387.19 133.844 386.45 133.424 385.89C133.004 385.31 132.134 384.77 130.814 384.27C129.514 383.77 127.544 383.17 124.904 382.47C122.044 381.71 119.794 380.92 118.154 380.1C116.514 379.28 115.344 378.33 114.644 377.25C113.944 376.17 113.594 374.86 113.594 373.32C113.594 371.42 114.114 369.76 115.154 368.34C116.194 366.9 117.644 365.79 119.504 365.01C121.384 364.23 123.564 363.84 126.044 363.84C128.504 363.84 130.704 364.23 132.644 365.01C134.584 365.79 136.144 366.9 137.324 368.34C138.524 369.76 139.234 371.42 139.454 373.32L133.994 374.31C133.734 372.57 132.894 371.2 131.474 370.2C130.074 369.2 128.264 368.67 126.044 368.61C123.944 368.53 122.234 368.9 120.914 369.72C119.614 370.54 118.964 371.65 118.964 373.05C118.964 373.83 119.204 374.5 119.684 375.06C120.184 375.62 121.094 376.15 122.414 376.65C123.754 377.15 125.694 377.72 128.234 378.36C131.094 379.08 133.344 379.87 134.984 380.73C136.644 381.57 137.824 382.57 138.524 383.73C139.224 384.87 139.574 386.28 139.574 387.96C139.574 391.08 138.424 393.54 136.124 395.34C133.824 397.12 130.654 398.01 126.614 398.01ZM163.002 397.14V353.94H168.342V397.14H163.002ZM193.527 397.14V353.94H218.727V359.28H198.867V372.87H215.127V378.21H198.867V397.14H193.527ZM226.513 359.01V353.49H231.853V359.01H226.513ZM226.513 397.14V364.74H231.853V397.14H226.513ZM265.725 397.14V380.91C265.725 379.37 265.585 377.89 265.305 376.47C265.045 375.05 264.575 373.78 263.895 372.66C263.235 371.52 262.335 370.62 261.195 369.96C260.075 369.3 258.655 368.97 256.935 368.97C255.595 368.97 254.375 369.2 253.275 369.66C252.195 370.1 251.265 370.78 250.485 371.7C249.705 372.62 249.095 373.78 248.655 375.18C248.235 376.56 248.025 378.19 248.025 380.07L244.515 378.99C244.515 375.85 245.075 373.16 246.195 370.92C247.335 368.66 248.925 366.93 250.965 365.73C253.025 364.51 255.445 363.9 258.225 363.9C260.325 363.9 262.115 364.23 263.595 364.89C265.075 365.55 266.305 366.43 267.285 367.53C268.265 368.61 269.035 369.83 269.595 371.19C270.155 372.53 270.545 373.9 270.765 375.3C271.005 376.68 271.125 377.99 271.125 379.23V397.14H265.725ZM242.625 397.14V364.74H247.425V373.41H248.025V397.14H242.625ZM289.934 398.04C287.514 398.04 285.484 397.6 283.844 396.72C282.224 395.82 280.994 394.64 280.154 393.18C279.334 391.72 278.924 390.12 278.924 388.38C278.924 386.68 279.244 385.21 279.884 383.97C280.544 382.71 281.464 381.67 282.644 380.85C283.824 380.01 285.234 379.35 286.874 378.87C288.414 378.45 290.134 378.09 292.034 377.79C293.954 377.47 295.894 377.18 297.854 376.92C299.814 376.66 301.644 376.41 303.344 376.17L301.424 377.28C301.484 374.4 300.904 372.27 299.684 370.89C298.484 369.51 296.404 368.82 293.444 368.82C291.484 368.82 289.764 369.27 288.284 370.17C286.824 371.05 285.794 372.49 285.194 374.49L280.124 372.96C280.904 370.12 282.414 367.89 284.654 366.27C286.894 364.65 289.844 363.84 293.504 363.84C296.444 363.84 298.964 364.37 301.064 365.43C303.184 366.47 304.704 368.05 305.624 370.17C306.084 371.17 306.374 372.26 306.494 373.44C306.614 374.6 306.674 375.82 306.674 377.1V397.14H301.934V389.37L303.044 390.09C301.824 392.71 300.114 394.69 297.914 396.03C295.734 397.37 293.074 398.04 289.934 398.04ZM290.744 393.57C292.664 393.57 294.324 393.23 295.724 392.55C297.144 391.85 298.284 390.94 299.144 389.82C300.004 388.68 300.564 387.44 300.824 386.1C301.124 385.1 301.284 383.99 301.304 382.77C301.344 381.53 301.364 380.58 301.364 379.92L303.224 380.73C301.484 380.97 299.774 381.2 298.094 381.42C296.414 381.64 294.824 381.88 293.324 382.14C291.824 382.38 290.474 382.67 289.274 383.01C288.394 383.29 287.564 383.65 286.784 384.09C286.024 384.53 285.404 385.1 284.924 385.8C284.464 386.48 284.234 387.33 284.234 388.35C284.234 389.23 284.454 390.07 284.894 390.87C285.354 391.67 286.054 392.32 286.994 392.82C287.954 393.32 289.204 393.57 290.744 393.57ZM339.344 397.14V380.91C339.344 379.37 339.204 377.89 338.924 376.47C338.664 375.05 338.194 373.78 337.514 372.66C336.854 371.52 335.954 370.62 334.814 369.96C333.694 369.3 332.274 368.97 330.554 368.97C329.214 368.97 327.994 369.2 326.894 369.66C325.814 370.1 324.884 370.78 324.104 371.7C323.324 372.62 322.714 373.78 322.274 375.18C321.854 376.56 321.644 378.19 321.644 380.07L318.134 378.99C318.134 375.85 318.694 373.16 319.814 370.92C320.954 368.66 322.544 366.93 324.584 365.73C326.644 364.51 329.064 363.9 331.844 363.9C333.944 363.9 335.734 364.23 337.214 364.89C338.694 365.55 339.924 366.43 340.904 367.53C341.884 368.61 342.654 369.83 343.214 371.19C343.774 372.53 344.164 373.9 344.384 375.3C344.624 376.68 344.744 377.99 344.744 379.23V397.14H339.344ZM316.244 397.14V364.74H321.044V373.41H321.644V397.14H316.244ZM367.701 398.04C364.421 398.04 361.631 397.31 359.331 395.85C357.051 394.37 355.311 392.34 354.111 389.76C352.911 387.18 352.291 384.24 352.251 380.94C352.291 377.56 352.921 374.59 354.141 372.03C355.381 369.45 357.151 367.44 359.451 366C361.751 364.56 364.521 363.84 367.761 363.84C371.181 363.84 374.121 364.68 376.581 366.36C379.061 368.04 380.721 370.34 381.561 373.26L376.281 374.85C375.601 372.97 374.491 371.51 372.951 370.47C371.431 369.43 369.681 368.91 367.701 368.91C365.481 368.91 363.651 369.43 362.211 370.47C360.771 371.49 359.701 372.91 359.001 374.73C358.301 376.53 357.941 378.6 357.921 380.94C357.961 384.54 358.791 387.45 360.411 389.67C362.051 391.87 364.481 392.97 367.701 392.97C369.821 392.97 371.581 392.49 372.981 391.53C374.381 390.55 375.441 389.14 376.161 387.3L381.561 388.71C380.441 391.73 378.691 394.04 376.311 395.64C373.931 397.24 371.061 398.04 367.701 398.04ZM402.645 398.04C399.465 398.04 396.685 397.34 394.305 395.94C391.945 394.52 390.105 392.55 388.785 390.03C387.465 387.49 386.805 384.53 386.805 381.15C386.805 377.61 387.455 374.55 388.755 371.97C390.055 369.37 391.865 367.37 394.185 365.97C396.525 364.55 399.265 363.84 402.405 363.84C405.665 363.84 408.435 364.59 410.715 366.09C413.015 367.59 414.735 369.73 415.875 372.51C417.035 375.29 417.535 378.6 417.375 382.44H411.975V380.52C411.915 376.54 411.105 373.57 409.545 371.61C407.985 369.63 405.665 368.64 402.585 368.64C399.285 368.64 396.775 369.7 395.055 371.82C393.335 373.94 392.475 376.98 392.475 380.94C392.475 384.76 393.335 387.72 395.055 389.82C396.775 391.92 399.225 392.97 402.405 392.97C404.545 392.97 406.405 392.48 407.985 391.5C409.565 390.52 410.805 389.11 411.705 387.27L416.835 389.04C415.575 391.9 413.675 394.12 411.135 395.7C408.615 397.26 405.785 398.04 402.645 398.04ZM390.675 382.44V378.15H414.615V382.44H390.675ZM440.866 397.14V353.94H446.206V397.14H440.866ZM471.391 397.14V353.94H476.731V372.99H499.471V353.94H504.811V397.14H499.471V378.06H476.731V397.14H471.391ZM515.027 397.14V353.94H532.097C532.517 353.94 533.017 353.96 533.597 354C534.177 354.02 534.737 354.08 535.277 354.18C537.617 354.54 539.577 355.34 541.157 356.58C542.757 357.82 543.957 359.39 544.757 361.29C545.557 363.17 545.957 365.26 545.957 367.56C545.957 370.9 545.087 373.8 543.347 376.26C541.607 378.7 539.057 380.23 535.697 380.85L533.657 381.18H520.367V397.14H515.027ZM540.737 397.14L532.217 379.56L537.497 377.94L546.857 397.14H540.737ZM520.367 376.11H531.917C532.297 376.11 532.727 376.09 533.207 376.05C533.707 376.01 534.177 375.94 534.617 375.84C535.997 375.52 537.117 374.94 537.977 374.1C538.857 373.24 539.497 372.24 539.897 371.1C540.297 369.94 540.497 368.76 540.497 367.56C540.497 366.36 540.297 365.19 539.897 364.05C539.497 362.89 538.857 361.88 537.977 361.02C537.117 360.16 535.997 359.58 534.617 359.28C534.177 359.16 533.707 359.09 533.207 359.07C532.727 359.03 532.297 359.01 531.917 359.01H520.367V376.11Z" fill="#6126D8"/>
<path d="M11.25 66.3594H155.672V94.9062H97.7344V269H69.1875V94.9062H11.25V66.3594ZM230.203 200.094V199.812C230.203 188.469 227.906 179.422 223.312 172.672C217.312 163.859 207.609 159.453 194.203 159.453C180.703 159.453 170.953 163.859 164.953 172.672C160.453 179.516 158.203 188.609 158.203 199.953C158.203 211.297 160.453 220.344 164.953 227.094C170.953 236 180.703 240.453 194.203 240.453C207.609 240.453 217.312 236.047 223.312 227.234C227.906 220.484 230.203 211.438 230.203 200.094ZM230.203 142.297V131.047H258.75V269H230.203V257.609C224.484 262.391 217.688 265.672 209.812 267.453L208.266 267.734C203.766 268.578 199.078 269 194.203 269C189.328 269 184.641 268.578 180.141 267.734L178.594 267.453C163.406 264.266 151.5 256.719 142.875 244.812C134.062 232.906 129.656 217.953 129.656 199.953C129.656 181.859 134.062 166.812 142.875 154.812C151.688 142.906 163.734 135.453 179.016 132.453L180.422 132.031C184.828 131.281 189.422 130.906 194.203 130.906C198.984 130.906 203.578 131.281 207.984 132.031L209.391 132.453C217.453 134.141 224.391 137.422 230.203 142.297ZM376.031 172.672C370.031 163.859 360.328 159.453 346.922 159.453C333.422 159.453 323.672 163.906 317.672 172.812C313.078 179.562 310.781 188.609 310.781 199.953C310.781 211.391 313.078 220.484 317.672 227.234C323.672 236.141 333.422 240.594 346.922 240.594C360.328 240.594 370.031 236.141 376.031 227.234C380.625 220.578 382.922 211.578 382.922 200.234V199.672C382.922 188.422 380.625 179.422 376.031 172.672ZM332.859 267.734L331.312 267.453C316.125 264.266 304.172 256.766 295.453 244.953C286.734 232.953 282.375 217.953 282.375 199.953C282.375 181.953 286.781 166.953 295.594 154.953C304.406 143.047 316.453 135.547 331.734 132.453L333.141 132.172C337.547 131.328 342.141 130.906 346.922 130.906C351.703 130.906 356.297 131.328 360.703 132.172L361.969 132.453C370.125 134.234 377.109 137.562 382.922 142.438V131.047H411.469V273.219C411.469 294.219 405.234 310.953 392.766 323.422C380.203 335.984 363.516 342.266 342.703 342.266C328.359 342.266 315.891 339.312 305.297 333.406C294.797 327.406 286.781 318.875 281.25 307.812L306.844 295.156C310.219 302.094 315.609 307.109 323.016 310.203C328.641 312.547 335.203 313.719 342.703 313.719C369.516 313.719 382.922 300.219 382.922 273.219V257.609C377.203 262.391 370.359 265.672 362.391 267.453L360.844 267.734C356.438 268.578 351.797 269 346.922 269C342.047 269 337.359 268.578 332.859 267.734Z" fill="#6126D8"/>
</svg>
