<svg width="588" height="433" viewBox="0 0 588 433" fill="none" xmlns="http://www.w3.org/2000/svg">
<g clip-path="url(#clip0_2012_21)">
<path d="M337.333 64.6157C336.116 72.0839 334.296 75.2364 332.821 76.9059L332.821 76.906C331.366 78.5524 328.487 80.7495 321.19 82.8532C315.658 84.4478 308.454 85.7485 298.851 86.9075L295.249 87.3421L293.961 90.7334L282.584 120.681L292.282 127.203C304.242 116.065 321.872 108.87 341.737 108.87C348.963 108.87 355.903 109.823 362.385 111.576L366.012 112.557L368.478 109.723C387.736 87.5913 419.448 78.6657 448.443 89.7097C485.603 103.864 504.253 145.462 490.099 182.622C481.288 205.757 461.843 221.721 439.427 227.059L434.817 228.157V232.896V271.879V275.662L438.23 277.293C443.571 279.846 450.916 284.631 461.557 293.195L464.439 295.515L467.807 293.98L495.87 281.193L499.099 279.721L499.365 276.182C501.261 250.917 505.564 243.347 509.781 239.642L505.822 235.135L509.781 239.642C512.329 237.405 516.503 235.114 524.602 232.855C530.489 231.213 537.612 229.802 546.592 228.278L549.978 227.703L551.197 224.493L563.416 192.321L564.711 188.912L562.282 186.193C556.251 179.443 551.775 173.872 548.561 168.966C544.315 162.485 542.973 158.201 542.719 154.967C542.256 149.055 544.932 139.726 561.546 119.883L564.01 116.94L562.371 113.469L548.959 85.0645L547.474 81.9194L544.007 81.645C532.345 80.7218 523.687 79.5058 517.052 77.8166L515.589 83.5616L517.051 77.8166C509.246 75.8298 505.466 73.4878 503.19 71.2842C500.894 69.0625 498.445 65.3537 496.193 57.6916C494.34 51.3851 492.863 43.2666 491.502 32.4687L491.051 28.8947L487.685 27.6123L456.85 15.866L453.49 14.586L450.777 16.9456C431.567 33.6527 422.456 38.0647 415.41 38.4692L415.754 44.4593L415.41 38.4692C408.61 38.8595 399.084 35.7337 378.305 21.2845L375.501 19.3344L372.392 20.7504L342.283 34.4665L338.774 36.065L338.77 39.9212C338.761 50.5656 338.332 58.4915 337.333 64.6157ZM337.333 64.6157L343.255 65.5812M337.333 64.6157L343.255 65.5812M343.255 65.5812C341.934 73.6848 339.809 78.0578 337.317 80.8786C334.843 83.6787 330.785 86.3312 322.852 88.6184L344.77 39.9266C344.761 50.6705 344.332 58.9774 343.255 65.5812Z" fill="#F8F8F8" stroke="#D7D7D7" stroke-width="12"/>
<path d="M54.8885 413.797C50.5885 413.797 46.9385 412.847 43.9385 410.947C40.9385 409.047 38.6485 406.407 37.0685 403.027C35.5085 399.647 34.7285 395.737 34.7285 391.297C34.7285 386.857 35.5085 382.947 37.0685 379.567C38.6485 376.187 40.9385 373.547 43.9385 371.647C46.9385 369.747 50.5885 368.797 54.8885 368.797C59.2085 368.797 62.8685 369.747 65.8685 371.647C68.8685 373.547 71.1485 376.187 72.7085 379.567C74.2685 382.947 75.0485 386.857 75.0485 391.297C75.0485 395.737 74.2685 399.647 72.7085 403.027C71.1485 406.407 68.8685 409.047 65.8685 410.947C62.8685 412.847 59.2085 413.797 54.8885 413.797ZM54.8885 408.697C58.1085 408.717 60.7885 407.997 62.9285 406.537C65.0885 405.057 66.6985 403.007 67.7585 400.387C68.8385 397.767 69.3785 394.737 69.3785 391.297C69.3785 387.837 68.8385 384.807 67.7585 382.207C66.6985 379.607 65.0885 377.577 62.9285 376.117C60.7885 374.657 58.1085 373.917 54.8885 373.897C51.6685 373.877 48.9885 374.597 46.8485 376.057C44.7285 377.517 43.1285 379.557 42.0485 382.177C40.9685 384.797 40.4185 387.837 40.3985 391.297C40.3785 394.737 40.9085 397.757 41.9885 400.357C43.0685 402.957 44.6785 404.997 46.8185 406.477C48.9785 407.937 51.6685 408.677 54.8885 408.697ZM97.7538 413.797C94.7138 413.797 92.1538 413.047 90.0738 411.547C87.9938 410.027 86.4138 407.977 85.3338 405.397C84.2738 402.797 83.7438 399.887 83.7438 396.667C83.7438 393.407 84.2738 390.487 85.3338 387.907C86.4138 385.327 87.9938 383.297 90.0738 381.817C92.1738 380.337 94.7438 379.597 97.7838 379.597C100.784 379.597 103.364 380.347 105.524 381.847C107.704 383.327 109.374 385.357 110.534 387.937C111.694 390.517 112.274 393.427 112.274 396.667C112.274 399.907 111.694 402.817 110.534 405.397C109.374 407.977 107.704 410.027 105.524 411.547C103.364 413.047 100.774 413.797 97.7538 413.797ZM82.8438 427.297V380.497H87.6138V404.347H88.2138V427.297H82.8438ZM97.0938 408.907C99.2338 408.907 101.004 408.367 102.404 407.287C103.804 406.207 104.854 404.747 105.554 402.907C106.254 401.047 106.604 398.967 106.604 396.667C106.604 394.387 106.254 392.327 105.554 390.487C104.874 388.647 103.814 387.187 102.374 386.107C100.954 385.027 99.1438 384.487 96.9438 384.487C94.8438 384.487 93.1038 385.007 91.7238 386.047C90.3438 387.067 89.3138 388.497 88.6338 390.337C87.9538 392.157 87.6138 394.267 87.6138 396.667C87.6138 399.027 87.9438 401.137 88.6038 402.997C89.2838 404.837 90.3238 406.287 91.7238 407.347C93.1238 408.387 94.9138 408.907 97.0938 408.907ZM132.422 413.767C128.562 413.767 125.392 412.927 122.912 411.247C120.452 409.547 118.942 407.177 118.382 404.137L123.842 403.267C124.282 405.027 125.292 406.427 126.872 407.467C128.452 408.487 130.412 408.997 132.752 408.997C134.972 408.997 136.712 408.537 137.972 407.617C139.232 406.697 139.862 405.447 139.862 403.867C139.862 402.947 139.652 402.207 139.232 401.647C138.812 401.067 137.942 400.527 136.622 400.027C135.322 399.527 133.352 398.927 130.712 398.227C127.852 397.467 125.602 396.677 123.962 395.857C122.322 395.037 121.152 394.087 120.452 393.007C119.752 391.927 119.402 390.617 119.402 389.077C119.402 387.177 119.922 385.517 120.962 384.097C122.002 382.657 123.452 381.547 125.312 380.767C127.192 379.987 129.372 379.597 131.852 379.597C134.312 379.597 136.512 379.987 138.452 380.767C140.392 381.547 141.952 382.657 143.132 384.097C144.332 385.517 145.042 387.177 145.262 389.077L139.802 390.067C139.542 388.327 138.702 386.957 137.282 385.957C135.882 384.957 134.072 384.427 131.852 384.367C129.752 384.287 128.042 384.657 126.722 385.477C125.422 386.297 124.772 387.407 124.772 388.807C124.772 389.587 125.012 390.257 125.492 390.817C125.992 391.377 126.902 391.907 128.222 392.407C129.562 392.907 131.502 393.477 134.042 394.117C136.902 394.837 139.152 395.627 140.792 396.487C142.452 397.327 143.632 398.327 144.332 399.487C145.032 400.627 145.382 402.037 145.382 403.717C145.382 406.837 144.232 409.297 141.932 411.097C139.632 412.877 136.462 413.767 132.422 413.767ZM168.81 412.897V369.697H174.15V412.897H168.81ZM199.335 412.897V369.697H224.535V375.037H204.675V388.627H220.935V393.967H204.675V412.897H199.335ZM232.321 374.767V369.247H237.661V374.767H232.321ZM232.321 412.897V380.497H237.661V412.897H232.321ZM271.532 412.897V396.667C271.532 395.127 271.392 393.647 271.112 392.227C270.852 390.807 270.382 389.537 269.702 388.417C269.042 387.277 268.142 386.377 267.002 385.717C265.882 385.057 264.462 384.727 262.742 384.727C261.402 384.727 260.182 384.957 259.082 385.417C258.002 385.857 257.072 386.537 256.292 387.457C255.512 388.377 254.902 389.537 254.462 390.937C254.042 392.317 253.832 393.947 253.832 395.827L250.322 394.747C250.322 391.607 250.882 388.917 252.002 386.677C253.142 384.417 254.732 382.687 256.772 381.487C258.832 380.267 261.252 379.657 264.032 379.657C266.132 379.657 267.922 379.987 269.402 380.647C270.882 381.307 272.112 382.187 273.092 383.287C274.072 384.367 274.842 385.587 275.402 386.947C275.962 388.287 276.352 389.657 276.572 391.057C276.812 392.437 276.932 393.747 276.932 394.987V412.897H271.532ZM248.432 412.897V380.497H253.232V389.167H253.832V412.897H248.432ZM295.742 413.797C293.322 413.797 291.292 413.357 289.652 412.477C288.032 411.577 286.802 410.397 285.962 408.937C285.142 407.477 284.732 405.877 284.732 404.137C284.732 402.437 285.052 400.967 285.692 399.727C286.352 398.467 287.272 397.427 288.452 396.607C289.632 395.767 291.042 395.107 292.682 394.627C294.222 394.207 295.942 393.847 297.842 393.547C299.762 393.227 301.702 392.937 303.662 392.677C305.622 392.417 307.452 392.167 309.152 391.927L307.232 393.037C307.292 390.157 306.712 388.027 305.492 386.647C304.292 385.267 302.212 384.577 299.252 384.577C297.292 384.577 295.572 385.027 294.092 385.927C292.632 386.807 291.602 388.247 291.002 390.247L285.932 388.717C286.712 385.877 288.222 383.647 290.462 382.027C292.702 380.407 295.652 379.597 299.312 379.597C302.252 379.597 304.772 380.127 306.872 381.187C308.992 382.227 310.512 383.807 311.432 385.927C311.892 386.927 312.182 388.017 312.302 389.197C312.422 390.357 312.482 391.577 312.482 392.857V412.897H307.742V405.127L308.852 405.847C307.632 408.467 305.922 410.447 303.722 411.787C301.542 413.127 298.882 413.797 295.742 413.797ZM296.552 409.327C298.472 409.327 300.132 408.987 301.532 408.307C302.952 407.607 304.092 406.697 304.952 405.577C305.812 404.437 306.372 403.197 306.632 401.857C306.932 400.857 307.092 399.747 307.112 398.527C307.152 397.287 307.172 396.337 307.172 395.677L309.032 396.487C307.292 396.727 305.582 396.957 303.902 397.177C302.222 397.397 300.632 397.637 299.132 397.897C297.632 398.137 296.282 398.427 295.082 398.767C294.202 399.047 293.372 399.407 292.592 399.847C291.832 400.287 291.212 400.857 290.732 401.557C290.272 402.237 290.042 403.087 290.042 404.107C290.042 404.987 290.262 405.827 290.702 406.627C291.162 407.427 291.862 408.077 292.802 408.577C293.762 409.077 295.012 409.327 296.552 409.327ZM345.152 412.897V396.667C345.152 395.127 345.012 393.647 344.732 392.227C344.472 390.807 344.002 389.537 343.322 388.417C342.662 387.277 341.762 386.377 340.622 385.717C339.502 385.057 338.082 384.727 336.362 384.727C335.022 384.727 333.802 384.957 332.702 385.417C331.622 385.857 330.692 386.537 329.912 387.457C329.132 388.377 328.522 389.537 328.082 390.937C327.662 392.317 327.452 393.947 327.452 395.827L323.942 394.747C323.942 391.607 324.502 388.917 325.622 386.677C326.762 384.417 328.352 382.687 330.392 381.487C332.452 380.267 334.872 379.657 337.652 379.657C339.752 379.657 341.542 379.987 343.022 380.647C344.502 381.307 345.732 382.187 346.712 383.287C347.692 384.367 348.462 385.587 349.022 386.947C349.582 388.287 349.972 389.657 350.192 391.057C350.432 392.437 350.552 393.747 350.552 394.987V412.897H345.152ZM322.052 412.897V380.497H326.852V389.167H327.452V412.897H322.052ZM373.508 413.797C370.228 413.797 367.438 413.067 365.138 411.607C362.858 410.127 361.118 408.097 359.918 405.517C358.718 402.937 358.098 399.997 358.058 396.697C358.098 393.317 358.728 390.347 359.948 387.787C361.188 385.207 362.958 383.197 365.258 381.757C367.558 380.317 370.328 379.597 373.568 379.597C376.988 379.597 379.928 380.437 382.388 382.117C384.868 383.797 386.528 386.097 387.368 389.017L382.088 390.607C381.408 388.727 380.298 387.267 378.758 386.227C377.238 385.187 375.488 384.667 373.508 384.667C371.288 384.667 369.458 385.187 368.018 386.227C366.578 387.247 365.508 388.667 364.808 390.487C364.108 392.287 363.748 394.357 363.728 396.697C363.768 400.297 364.598 403.207 366.218 405.427C367.858 407.627 370.288 408.727 373.508 408.727C375.628 408.727 377.388 408.247 378.788 407.287C380.188 406.307 381.248 404.897 381.968 403.057L387.368 404.467C386.248 407.487 384.498 409.797 382.118 411.397C379.738 412.997 376.868 413.797 373.508 413.797ZM408.452 413.797C405.272 413.797 402.492 413.097 400.112 411.697C397.752 410.277 395.912 408.307 394.592 405.787C393.272 403.247 392.612 400.287 392.612 396.907C392.612 393.367 393.262 390.307 394.562 387.727C395.862 385.127 397.672 383.127 399.992 381.727C402.332 380.307 405.072 379.597 408.212 379.597C411.472 379.597 414.242 380.347 416.522 381.847C418.822 383.347 420.542 385.487 421.682 388.267C422.842 391.047 423.342 394.357 423.182 398.197H417.782V396.277C417.722 392.297 416.912 389.327 415.352 387.367C413.792 385.387 411.472 384.397 408.392 384.397C405.092 384.397 402.582 385.457 400.862 387.577C399.142 389.697 398.282 392.737 398.282 396.697C398.282 400.517 399.142 403.477 400.862 405.577C402.582 407.677 405.032 408.727 408.212 408.727C410.352 408.727 412.212 408.237 413.792 407.257C415.372 406.277 416.612 404.867 417.512 403.027L422.642 404.797C421.382 407.657 419.482 409.877 416.942 411.457C414.422 413.017 411.592 413.797 408.452 413.797ZM396.482 398.197V393.907H420.422V398.197H396.482ZM446.673 412.897V369.697H452.013V412.897H446.673ZM477.198 412.897V369.697H482.538V388.747H505.278V369.697H510.618V412.897H505.278V393.817H482.538V412.897H477.198ZM520.834 412.897V369.697H537.904C538.324 369.697 538.824 369.717 539.404 369.757C539.984 369.777 540.544 369.837 541.084 369.937C543.424 370.297 545.384 371.097 546.964 372.337C548.564 373.577 549.764 375.147 550.564 377.047C551.364 378.927 551.764 381.017 551.764 383.317C551.764 386.657 550.894 389.557 549.154 392.017C547.414 394.457 544.864 395.987 541.504 396.607L539.464 396.937H526.174V412.897H520.834ZM546.544 412.897L538.024 395.317L543.304 393.697L552.664 412.897H546.544ZM526.174 391.867H537.724C538.104 391.867 538.534 391.847 539.014 391.807C539.514 391.767 539.984 391.697 540.424 391.597C541.804 391.277 542.924 390.697 543.784 389.857C544.664 388.997 545.304 387.997 545.704 386.857C546.104 385.697 546.304 384.517 546.304 383.317C546.304 382.117 546.104 380.947 545.704 379.807C545.304 378.647 544.664 377.637 543.784 376.777C542.924 375.917 541.804 375.337 540.424 375.037C539.984 374.917 539.514 374.847 539.014 374.827C538.534 374.787 538.104 374.767 537.724 374.767H526.174V391.867Z" fill="#D7D7D7"/>
<path d="M11.25 67.2563H155.672V95.8031H97.7344V269.897H69.1875V95.8031H11.25V67.2563ZM230.203 200.991V200.709C230.203 189.366 227.906 180.319 223.312 173.569C217.312 164.756 207.609 160.35 194.203 160.35C180.703 160.35 170.953 164.756 164.953 173.569C160.453 180.413 158.203 189.506 158.203 200.85C158.203 212.194 160.453 221.241 164.953 227.991C170.953 236.897 180.703 241.35 194.203 241.35C207.609 241.35 217.312 236.944 223.312 228.131C227.906 221.381 230.203 212.334 230.203 200.991ZM230.203 143.194V131.944H258.75V269.897H230.203V258.506C224.484 263.288 217.688 266.569 209.812 268.35L208.266 268.631C203.766 269.475 199.078 269.897 194.203 269.897C189.328 269.897 184.641 269.475 180.141 268.631L178.594 268.35C163.406 265.163 151.5 257.616 142.875 245.709C134.062 233.803 129.656 218.85 129.656 200.85C129.656 182.756 134.062 167.709 142.875 155.709C151.688 143.803 163.734 136.35 179.016 133.35L180.422 132.928C184.828 132.178 189.422 131.803 194.203 131.803C198.984 131.803 203.578 132.178 207.984 132.928L209.391 133.35C217.453 135.038 224.391 138.319 230.203 143.194ZM376.031 173.569C370.031 164.756 360.328 160.35 346.922 160.35C333.422 160.35 323.672 164.803 317.672 173.709C313.078 180.459 310.781 189.506 310.781 200.85C310.781 212.288 313.078 221.381 317.672 228.131C323.672 237.038 333.422 241.491 346.922 241.491C360.328 241.491 370.031 237.038 376.031 228.131C380.625 221.475 382.922 212.475 382.922 201.131V200.569C382.922 189.319 380.625 180.319 376.031 173.569ZM332.859 268.631L331.312 268.35C316.125 265.163 304.172 257.663 295.453 245.85C286.734 233.85 282.375 218.85 282.375 200.85C282.375 182.85 286.781 167.85 295.594 155.85C304.406 143.944 316.453 136.444 331.734 133.35L333.141 133.069C337.547 132.225 342.141 131.803 346.922 131.803C351.703 131.803 356.297 132.225 360.703 133.069L361.969 133.35C370.125 135.131 377.109 138.459 382.922 143.334V131.944H411.469V274.116C411.469 295.116 405.234 311.85 392.766 324.319C380.203 336.881 363.516 343.163 342.703 343.163C328.359 343.163 315.891 340.209 305.297 334.303C294.797 328.303 286.781 319.772 281.25 308.709L306.844 296.053C310.219 302.991 315.609 308.006 323.016 311.1C328.641 313.444 335.203 314.616 342.703 314.616C369.516 314.616 382.922 301.116 382.922 274.116V258.506C377.203 263.288 370.359 266.569 362.391 268.35L360.844 268.631C356.438 269.475 351.797 269.897 346.922 269.897C342.047 269.897 337.359 269.475 332.859 268.631Z" fill="#D7D7D7"/>
</g>
<defs>
<clipPath id="clip0_2012_21">
<rect width="588" height="432" fill="white" transform="translate(0 0.896881)"/>
</clipPath>
</defs>
</svg>
