<svg width="600" height="421" viewBox="0 0 600 421" fill="none" xmlns="http://www.w3.org/2000/svg">
<path d="M495.87 281.193L499.099 279.721L499.365 276.182C501.261 250.917 505.563 243.347 509.781 239.642L505.822 235.135L509.781 239.642C512.329 237.405 516.503 235.114 524.602 232.855C530.489 231.213 537.612 229.802 546.592 228.278L549.978 227.703L551.197 224.493L563.416 192.321L564.711 188.912L562.282 186.193C556.251 179.443 551.775 173.872 548.561 168.966C544.315 162.485 542.973 158.201 542.719 154.967C542.256 149.055 544.932 139.726 561.546 119.883L564.01 116.94L562.371 113.469L548.959 85.0645L547.474 81.9194L544.007 81.645C532.345 80.7218 523.687 79.5058 517.052 77.8166L515.589 83.5616L517.051 77.8166C509.246 75.8298 505.466 73.4878 503.19 71.2842C500.894 69.0625 498.445 65.3537 496.193 57.6916C494.34 51.3851 492.863 43.2666 491.502 32.4687L491.051 28.8947L487.685 27.6123L456.85 15.866L453.49 14.586L450.777 16.9456C431.567 33.6527 422.456 38.0647 415.41 38.4692L415.754 44.4593L415.41 38.4692C408.61 38.8595 399.084 35.7337 378.305 21.2845L375.501 19.3344L372.392 20.7504L342.283 34.4665L338.774 36.065L338.77 39.9212C338.761 50.5656 338.332 58.4915 337.333 64.6157C336.116 72.0839 334.296 75.2364 332.821 76.9059L332.821 76.906C331.366 78.5524 328.487 80.7495 321.19 82.8532C315.658 84.4478 308.454 85.7485 298.851 86.9075L295.249 87.3421L293.961 90.7334L282.584 120.681L292.282 127.203C304.242 116.065 321.872 108.87 341.737 108.87C348.963 108.87 355.903 109.823 362.385 111.576L366.012 112.557L368.478 109.723C387.736 87.5913 419.448 78.6657 448.443 89.7097C485.603 103.864 504.253 145.462 490.099 182.622C481.288 205.757 461.843 221.721 439.427 227.059L434.817 228.157V232.896V271.879V275.662L438.23 277.293C443.571 279.846 450.916 284.631 461.557 293.195L464.439 295.515L467.807 293.98L495.87 281.193Z" fill="#F8F8F8" stroke="#CCCCCC" stroke-width="12"/>
<path d="M49.0812 398.937C44.7812 398.937 41.1312 397.987 38.1312 396.087C35.1312 394.187 32.8412 391.547 31.2612 388.167C29.7012 384.787 28.9212 380.877 28.9212 376.437C28.9212 371.997 29.7012 368.087 31.2612 364.707C32.8412 361.327 35.1312 358.687 38.1312 356.787C41.1312 354.887 44.7812 353.937 49.0812 353.937C53.4012 353.937 57.0612 354.887 60.0612 356.787C63.0612 358.687 65.3412 361.327 66.9012 364.707C68.4612 368.087 69.2412 371.997 69.2412 376.437C69.2412 380.877 68.4612 384.787 66.9012 388.167C65.3412 391.547 63.0612 394.187 60.0612 396.087C57.0612 397.987 53.4012 398.937 49.0812 398.937ZM49.0812 393.837C52.3012 393.857 54.9812 393.137 57.1212 391.677C59.2812 390.197 60.8912 388.147 61.9512 385.527C63.0312 382.907 63.5712 379.877 63.5712 376.437C63.5712 372.977 63.0312 369.947 61.9512 367.347C60.8912 364.747 59.2812 362.717 57.1212 361.257C54.9812 359.797 52.3012 359.057 49.0812 359.037C45.8612 359.017 43.1812 359.737 41.0412 361.197C38.9212 362.657 37.3212 364.697 36.2412 367.317C35.1612 369.937 34.6112 372.977 34.5912 376.437C34.5712 379.877 35.1012 382.897 36.1812 385.497C37.2612 388.097 38.8712 390.137 41.0112 391.617C43.1712 393.077 45.8612 393.817 49.0812 393.837ZM91.9465 398.937C88.9065 398.937 86.3465 398.187 84.2665 396.687C82.1865 395.167 80.6065 393.117 79.5265 390.537C78.4665 387.937 77.9365 385.027 77.9365 381.807C77.9365 378.547 78.4665 375.627 79.5265 373.047C80.6065 370.467 82.1865 368.437 84.2665 366.957C86.3665 365.477 88.9365 364.737 91.9765 364.737C94.9765 364.737 97.5565 365.487 99.7165 366.987C101.897 368.467 103.567 370.497 104.727 373.077C105.887 375.657 106.467 378.567 106.467 381.807C106.467 385.047 105.887 387.957 104.727 390.537C103.567 393.117 101.897 395.167 99.7165 396.687C97.5565 398.187 94.9665 398.937 91.9465 398.937ZM77.0365 412.437V365.637H81.8065V389.487H82.4065V412.437H77.0365ZM91.2865 394.047C93.4265 394.047 95.1965 393.507 96.5965 392.427C97.9965 391.347 99.0465 389.887 99.7465 388.047C100.447 386.187 100.797 384.107 100.797 381.807C100.797 379.527 100.447 377.467 99.7465 375.627C99.0665 373.787 98.0065 372.327 96.5665 371.247C95.1465 370.167 93.3365 369.627 91.1365 369.627C89.0365 369.627 87.2965 370.147 85.9165 371.187C84.5365 372.207 83.5065 373.637 82.8265 375.477C82.1465 377.297 81.8065 379.407 81.8065 381.807C81.8065 384.167 82.1365 386.277 82.7965 388.137C83.4765 389.977 84.5165 391.427 85.9165 392.487C87.3165 393.527 89.1065 394.047 91.2865 394.047ZM126.614 398.907C122.754 398.907 119.584 398.067 117.104 396.387C114.644 394.687 113.134 392.317 112.574 389.277L118.034 388.407C118.474 390.167 119.484 391.567 121.064 392.607C122.644 393.627 124.604 394.137 126.944 394.137C129.164 394.137 130.904 393.677 132.164 392.757C133.424 391.837 134.054 390.587 134.054 389.007C134.054 388.087 133.844 387.347 133.424 386.787C133.004 386.207 132.134 385.667 130.814 385.167C129.514 384.667 127.544 384.067 124.904 383.367C122.044 382.607 119.794 381.817 118.154 380.997C116.514 380.177 115.344 379.227 114.644 378.147C113.944 377.067 113.594 375.757 113.594 374.217C113.594 372.317 114.114 370.657 115.154 369.237C116.194 367.797 117.644 366.687 119.504 365.907C121.384 365.127 123.564 364.737 126.044 364.737C128.504 364.737 130.704 365.127 132.644 365.907C134.584 366.687 136.144 367.797 137.324 369.237C138.524 370.657 139.234 372.317 139.454 374.217L133.994 375.207C133.734 373.467 132.894 372.097 131.474 371.097C130.074 370.097 128.264 369.567 126.044 369.507C123.944 369.427 122.234 369.797 120.914 370.617C119.614 371.437 118.964 372.547 118.964 373.947C118.964 374.727 119.204 375.397 119.684 375.957C120.184 376.517 121.094 377.047 122.414 377.547C123.754 378.047 125.694 378.617 128.234 379.257C131.094 379.977 133.344 380.767 134.984 381.627C136.644 382.467 137.824 383.467 138.524 384.627C139.224 385.767 139.574 387.177 139.574 388.857C139.574 391.977 138.424 394.437 136.124 396.237C133.824 398.017 130.654 398.907 126.614 398.907ZM163.002 398.037V354.837H168.342V398.037H163.002ZM193.527 398.037V354.837H218.727V360.177H198.867V373.767H215.127V379.107H198.867V398.037H193.527ZM226.513 359.907V354.387H231.853V359.907H226.513ZM226.513 398.037V365.637H231.853V398.037H226.513ZM265.725 398.037V381.807C265.725 380.267 265.585 378.787 265.305 377.367C265.045 375.947 264.575 374.677 263.895 373.557C263.235 372.417 262.335 371.517 261.195 370.857C260.075 370.197 258.655 369.867 256.935 369.867C255.595 369.867 254.375 370.097 253.275 370.557C252.195 370.997 251.265 371.677 250.485 372.597C249.705 373.517 249.095 374.677 248.655 376.077C248.235 377.457 248.025 379.087 248.025 380.967L244.515 379.887C244.515 376.747 245.075 374.057 246.195 371.817C247.335 369.557 248.925 367.827 250.965 366.627C253.025 365.407 255.445 364.797 258.225 364.797C260.325 364.797 262.115 365.127 263.595 365.787C265.075 366.447 266.305 367.327 267.285 368.427C268.265 369.507 269.035 370.727 269.595 372.087C270.155 373.427 270.545 374.797 270.765 376.197C271.005 377.577 271.125 378.887 271.125 380.127V398.037H265.725ZM242.625 398.037V365.637H247.425V374.307H248.025V398.037H242.625ZM289.934 398.937C287.514 398.937 285.484 398.497 283.844 397.617C282.224 396.717 280.994 395.537 280.154 394.077C279.334 392.617 278.924 391.017 278.924 389.277C278.924 387.577 279.244 386.107 279.884 384.867C280.544 383.607 281.464 382.567 282.644 381.747C283.824 380.907 285.234 380.247 286.874 379.767C288.414 379.347 290.134 378.987 292.034 378.687C293.954 378.367 295.894 378.077 297.854 377.817C299.814 377.557 301.644 377.307 303.344 377.067L301.424 378.177C301.484 375.297 300.904 373.167 299.684 371.787C298.484 370.407 296.404 369.717 293.444 369.717C291.484 369.717 289.764 370.167 288.284 371.067C286.824 371.947 285.794 373.387 285.194 375.387L280.124 373.857C280.904 371.017 282.414 368.787 284.654 367.167C286.894 365.547 289.844 364.737 293.504 364.737C296.444 364.737 298.964 365.267 301.064 366.327C303.184 367.367 304.704 368.947 305.624 371.067C306.084 372.067 306.374 373.157 306.494 374.337C306.614 375.497 306.674 376.717 306.674 377.997V398.037H301.934V390.267L303.044 390.987C301.824 393.607 300.114 395.587 297.914 396.927C295.734 398.267 293.074 398.937 289.934 398.937ZM290.744 394.467C292.664 394.467 294.324 394.127 295.724 393.447C297.144 392.747 298.284 391.837 299.144 390.717C300.004 389.577 300.564 388.337 300.824 386.997C301.124 385.997 301.284 384.887 301.304 383.667C301.344 382.427 301.364 381.477 301.364 380.817L303.224 381.627C301.484 381.867 299.774 382.097 298.094 382.317C296.414 382.537 294.824 382.777 293.324 383.037C291.824 383.277 290.474 383.567 289.274 383.907C288.394 384.187 287.564 384.547 286.784 384.987C286.024 385.427 285.404 385.997 284.924 386.697C284.464 387.377 284.234 388.227 284.234 389.247C284.234 390.127 284.454 390.967 284.894 391.767C285.354 392.567 286.054 393.217 286.994 393.717C287.954 394.217 289.204 394.467 290.744 394.467ZM339.344 398.037V381.807C339.344 380.267 339.204 378.787 338.924 377.367C338.664 375.947 338.194 374.677 337.514 373.557C336.854 372.417 335.954 371.517 334.814 370.857C333.694 370.197 332.274 369.867 330.554 369.867C329.214 369.867 327.994 370.097 326.894 370.557C325.814 370.997 324.884 371.677 324.104 372.597C323.324 373.517 322.714 374.677 322.274 376.077C321.854 377.457 321.644 379.087 321.644 380.967L318.134 379.887C318.134 376.747 318.694 374.057 319.814 371.817C320.954 369.557 322.544 367.827 324.584 366.627C326.644 365.407 329.064 364.797 331.844 364.797C333.944 364.797 335.734 365.127 337.214 365.787C338.694 366.447 339.924 367.327 340.904 368.427C341.884 369.507 342.654 370.727 343.214 372.087C343.774 373.427 344.164 374.797 344.384 376.197C344.624 377.577 344.744 378.887 344.744 380.127V398.037H339.344ZM316.244 398.037V365.637H321.044V374.307H321.644V398.037H316.244ZM367.701 398.937C364.421 398.937 361.631 398.207 359.331 396.747C357.051 395.267 355.311 393.237 354.111 390.657C352.911 388.077 352.291 385.137 352.251 381.837C352.291 378.457 352.921 375.487 354.141 372.927C355.381 370.347 357.151 368.337 359.451 366.897C361.751 365.457 364.521 364.737 367.761 364.737C371.181 364.737 374.121 365.577 376.581 367.257C379.061 368.937 380.721 371.237 381.561 374.157L376.281 375.747C375.601 373.867 374.491 372.407 372.951 371.367C371.431 370.327 369.681 369.807 367.701 369.807C365.481 369.807 363.651 370.327 362.211 371.367C360.771 372.387 359.701 373.807 359.001 375.627C358.301 377.427 357.941 379.497 357.921 381.837C357.961 385.437 358.791 388.347 360.411 390.567C362.051 392.767 364.481 393.867 367.701 393.867C369.821 393.867 371.581 393.387 372.981 392.427C374.381 391.447 375.441 390.037 376.161 388.197L381.561 389.607C380.441 392.627 378.691 394.937 376.311 396.537C373.931 398.137 371.061 398.937 367.701 398.937ZM402.645 398.937C399.465 398.937 396.685 398.237 394.305 396.837C391.945 395.417 390.105 393.447 388.785 390.927C387.465 388.387 386.805 385.427 386.805 382.047C386.805 378.507 387.455 375.447 388.755 372.867C390.055 370.267 391.865 368.267 394.185 366.867C396.525 365.447 399.265 364.737 402.405 364.737C405.665 364.737 408.435 365.487 410.715 366.987C413.015 368.487 414.735 370.627 415.875 373.407C417.035 376.187 417.535 379.497 417.375 383.337H411.975V381.417C411.915 377.437 411.105 374.467 409.545 372.507C407.985 370.527 405.665 369.537 402.585 369.537C399.285 369.537 396.775 370.597 395.055 372.717C393.335 374.837 392.475 377.877 392.475 381.837C392.475 385.657 393.335 388.617 395.055 390.717C396.775 392.817 399.225 393.867 402.405 393.867C404.545 393.867 406.405 393.377 407.985 392.397C409.565 391.417 410.805 390.007 411.705 388.167L416.835 389.937C415.575 392.797 413.675 395.017 411.135 396.597C408.615 398.157 405.785 398.937 402.645 398.937ZM390.675 383.337V379.047H414.615V383.337H390.675ZM440.866 398.037V354.837H446.206V398.037H440.866ZM471.391 398.037V354.837H476.731V373.887H499.471V354.837H504.811V398.037H499.471V378.957H476.731V398.037H471.391ZM515.027 398.037V354.837H532.097C532.517 354.837 533.017 354.857 533.597 354.897C534.177 354.917 534.737 354.977 535.277 355.077C537.617 355.437 539.577 356.237 541.157 357.477C542.757 358.717 543.957 360.287 544.757 362.187C545.557 364.067 545.957 366.157 545.957 368.457C545.957 371.797 545.087 374.697 543.347 377.157C541.607 379.597 539.057 381.127 535.697 381.747L533.657 382.077H520.367V398.037H515.027ZM540.737 398.037L532.217 380.457L537.497 378.837L546.857 398.037H540.737ZM520.367 377.007H531.917C532.297 377.007 532.727 376.987 533.207 376.947C533.707 376.907 534.177 376.837 534.617 376.737C535.997 376.417 537.117 375.837 537.977 374.997C538.857 374.137 539.497 373.137 539.897 371.997C540.297 370.837 540.497 369.657 540.497 368.457C540.497 367.257 540.297 366.087 539.897 364.947C539.497 363.787 538.857 362.777 537.977 361.917C537.117 361.057 535.997 360.477 534.617 360.177C534.177 360.057 533.707 359.987 533.207 359.967C532.727 359.927 532.297 359.907 531.917 359.907H520.367V377.007Z" fill="#F8F8F8"/>
<path d="M11.25 67.2563H155.672V95.8031H97.7344V269.897H69.1875V95.8031H11.25V67.2563ZM230.203 200.991V200.709C230.203 189.366 227.906 180.319 223.312 173.569C217.312 164.756 207.609 160.35 194.203 160.35C180.703 160.35 170.953 164.756 164.953 173.569C160.453 180.413 158.203 189.506 158.203 200.85C158.203 212.194 160.453 221.241 164.953 227.991C170.953 236.897 180.703 241.35 194.203 241.35C207.609 241.35 217.312 236.944 223.312 228.131C227.906 221.381 230.203 212.334 230.203 200.991ZM230.203 143.194V131.944H258.75V269.897H230.203V258.506C224.484 263.288 217.688 266.569 209.812 268.35L208.266 268.631C203.766 269.475 199.078 269.897 194.203 269.897C189.328 269.897 184.641 269.475 180.141 268.631L178.594 268.35C163.406 265.163 151.5 257.616 142.875 245.709C134.062 233.803 129.656 218.85 129.656 200.85C129.656 182.756 134.062 167.709 142.875 155.709C151.688 143.803 163.734 136.35 179.016 133.35L180.422 132.928C184.828 132.178 189.422 131.803 194.203 131.803C198.984 131.803 203.578 132.178 207.984 132.928L209.391 133.35C217.453 135.038 224.391 138.319 230.203 143.194ZM376.031 173.569C370.031 164.756 360.328 160.35 346.922 160.35C333.422 160.35 323.672 164.803 317.672 173.709C313.078 180.459 310.781 189.506 310.781 200.85C310.781 212.288 313.078 221.381 317.672 228.131C323.672 237.038 333.422 241.491 346.922 241.491C360.328 241.491 370.031 237.038 376.031 228.131C380.625 221.475 382.922 212.475 382.922 201.131V200.569C382.922 189.319 380.625 180.319 376.031 173.569ZM332.859 268.631L331.312 268.35C316.125 265.163 304.172 257.663 295.453 245.85C286.734 233.85 282.375 218.85 282.375 200.85C282.375 182.85 286.781 167.85 295.594 155.85C304.406 143.944 316.453 136.444 331.734 133.35L333.141 133.069C337.547 132.225 342.141 131.803 346.922 131.803C351.703 131.803 356.297 132.225 360.703 133.069L361.969 133.35C370.125 135.131 377.109 138.459 382.922 143.334V131.944H411.469V274.116C411.469 295.116 405.234 311.85 392.766 324.319C380.203 336.881 363.516 343.163 342.703 343.163C328.359 343.163 315.891 340.209 305.297 334.303C294.797 328.303 286.781 319.772 281.25 308.709L306.844 296.053C310.219 302.991 315.609 308.006 323.016 311.1C328.641 313.444 335.203 314.616 342.703 314.616C369.516 314.616 382.922 301.116 382.922 274.116V258.506C377.203 263.288 370.359 266.569 362.391 268.35L360.844 268.631C356.438 269.475 351.797 269.897 346.922 269.897C342.047 269.897 337.359 269.475 332.859 268.631Z" fill="#F8F8F8"/>
</svg>
