<svg width="1879" height="331" viewBox="0 0 1879 331" fill="none" xmlns="http://www.w3.org/2000/svg">
<mask id="path-1-outside-1_2111_2947" maskUnits="userSpaceOnUse" x="1636.24" y="7.10864" width="243" height="242" fill="black">
<rect fill="white" x="1636.24" y="7.10864" width="243" height="242"/>
<path fill-rule="evenodd" clip-rule="evenodd" d="M1816.66 64.9996C1820.88 69.7168 1828.48 73.0363 1848.17 74.3226L1858.27 95.9422C1845.43 112.222 1842.81 119.659 1843.29 125.091C1843.55 128.033 1844.83 131.583 1848.21 136.793C1851.33 141.609 1855.73 147.091 1861.65 154.202L1854.12 174.552C1835.02 178.288 1827.03 181.709 1822.55 187.014C1818.25 192.111 1815.59 200.842 1814.32 220.204L1791.28 231.354C1789.28 229.801 1787.41 228.397 1785.65 227.133C1788.79 214.079 1788.49 199.547 1782.6 184.386C1796.38 177.876 1807.72 166.175 1813.42 150.753C1824.99 119.488 1809.02 84.7673 1777.75 73.2028C1753.73 64.3176 1727.67 71.6863 1711.64 89.7574C1706.8 89.2537 1701.79 89.1146 1696.7 89.4594C1683.87 90.3287 1670.74 94.3037 1659 102.804L1654.24 99.3072L1660.57 82.1936C1669 81.0477 1675.56 79.8048 1680.78 78.2163C1687.16 76.2721 1690.83 74.0188 1693.26 71.4561C1695.68 68.9068 1697.75 65.1359 1699.35 58.5862C1700.7 53.061 1701.6 46.0485 1702.24 36.9191L1724.12 26.3292C1739.68 39.107 1748.2 42.2494 1754.76 41.6716C1758.3 41.3597 1762.35 39.873 1767.72 36.2808C1771.77 33.5714 1776.24 29.891 1781.49 25.1086L1806.48 34.3237C1807.73 41.2977 1808.91 46.9918 1810.29 51.775C1812.2 58.3524 1814.25 62.3131 1816.66 64.9996Z"/>
</mask>
<path fill-rule="evenodd" clip-rule="evenodd" d="M1816.66 64.9996C1820.88 69.7168 1828.48 73.0363 1848.17 74.3226L1858.27 95.9422C1845.43 112.222 1842.81 119.659 1843.29 125.091C1843.55 128.033 1844.83 131.583 1848.21 136.793C1851.33 141.609 1855.73 147.091 1861.65 154.202L1854.12 174.552C1835.02 178.288 1827.03 181.709 1822.55 187.014C1818.25 192.111 1815.59 200.842 1814.32 220.204L1791.28 231.354C1789.28 229.801 1787.41 228.397 1785.65 227.133C1788.79 214.079 1788.49 199.547 1782.6 184.386C1796.38 177.876 1807.72 166.175 1813.42 150.753C1824.99 119.488 1809.02 84.7673 1777.75 73.2028C1753.73 64.3176 1727.67 71.6863 1711.64 89.7574C1706.8 89.2537 1701.79 89.1146 1696.7 89.4594C1683.87 90.3287 1670.74 94.3037 1659 102.804L1654.24 99.3072L1660.57 82.1936C1669 81.0477 1675.56 79.8048 1680.78 78.2163C1687.16 76.2721 1690.83 74.0188 1693.26 71.4561C1695.68 68.9068 1697.75 65.1359 1699.35 58.5862C1700.7 53.061 1701.6 46.0485 1702.24 36.9191L1724.12 26.3292C1739.68 39.107 1748.2 42.2494 1754.76 41.6716C1758.3 41.3597 1762.35 39.873 1767.72 36.2808C1771.77 33.5714 1776.24 29.891 1781.49 25.1086L1806.48 34.3237C1807.73 41.2977 1808.91 46.9918 1810.29 51.775C1812.2 58.3524 1814.25 62.3131 1816.66 64.9996Z" fill="#A3DDFF"/>
<path d="M1848.17 74.3226L1861.76 67.9713L1858 59.9331L1849.14 59.3545L1848.17 74.3226ZM1816.66 64.9996L1827.83 54.9921V54.9921L1816.66 64.9996ZM1858.27 95.9422L1870.05 105.234L1875.78 97.9714L1871.86 89.5909L1858.27 95.9422ZM1843.29 125.091L1828.35 126.41V126.411L1843.29 125.091ZM1848.21 136.793L1860.79 128.635L1860.79 128.634L1848.21 136.793ZM1861.65 154.202L1875.72 159.407L1878.73 151.269L1873.18 144.602L1861.65 154.202ZM1854.12 174.552L1857 189.273L1865.27 187.656L1868.19 179.757L1854.12 174.552ZM1822.55 187.014L1834.01 196.692L1834.01 196.692L1822.55 187.014ZM1814.32 220.204L1820.85 233.706L1828.71 229.901L1829.28 221.187L1814.32 220.204ZM1791.28 231.354L1782.07 243.191L1789.42 248.917L1797.81 244.856L1791.28 231.354ZM1785.65 227.133L1771.06 223.622L1768.7 233.439L1776.91 239.323L1785.65 227.133ZM1782.6 184.386L1776.19 170.824L1763.56 176.792L1768.62 189.815L1782.6 184.386ZM1813.42 150.753L1827.49 155.957H1827.49L1813.42 150.753ZM1777.75 73.2028L1772.55 87.2712L1777.75 73.2028ZM1711.64 89.7574L1710.09 104.677L1717.75 105.474L1722.86 99.7119L1711.64 89.7574ZM1696.7 89.4594L1695.69 74.4937H1695.69L1696.7 89.4594ZM1659 102.804L1650.12 114.894L1658.94 121.37L1667.8 114.953L1659 102.804ZM1654.24 99.3072L1640.17 94.1028L1636.25 104.705L1645.36 111.397L1654.24 99.3072ZM1660.57 82.1936L1658.55 67.3302L1649.62 68.5429L1646.5 76.9892L1660.57 82.1936ZM1680.78 78.2163L1685.14 92.5663L1685.15 92.5663L1680.78 78.2163ZM1693.26 71.4561L1704.14 81.7837L1704.14 81.7837L1693.26 71.4561ZM1699.35 58.5862L1684.78 55.0262L1684.78 55.0263L1699.35 58.5862ZM1702.24 36.9191L1695.7 23.4175L1687.87 27.2056L1687.27 35.8798L1702.24 36.9191ZM1724.12 26.3292L1733.63 14.7358L1726.22 8.64723L1717.58 12.8275L1724.12 26.3292ZM1754.76 41.6716L1753.44 26.7295L1753.44 26.7295L1754.76 41.6716ZM1767.72 36.2808L1776.06 48.7484L1776.06 48.7484L1767.72 36.2808ZM1781.49 25.1086L1786.68 11.0353L1778.13 7.88113L1771.39 14.0192L1781.49 25.1086ZM1806.48 34.3237L1821.24 31.6712L1819.72 23.2211L1811.67 20.2503L1806.48 34.3237ZM1810.29 51.775L1824.7 47.6056L1824.7 47.6055L1810.29 51.775ZM1849.14 59.3545C1839.84 58.7467 1834.42 57.7072 1831.23 56.675C1828.37 55.7496 1827.85 55.0162 1827.83 54.9921L1805.49 75.0071C1814 84.5093 1827.12 87.9791 1847.19 89.2907L1849.14 59.3545ZM1871.86 89.5909L1861.76 67.9713L1834.58 80.6739L1844.68 102.294L1871.86 89.5909ZM1858.24 123.772C1858.3 124.453 1857.92 123.962 1859.3 121.083C1860.81 117.959 1863.9 113.028 1870.05 105.234L1846.5 86.6507C1833.8 102.743 1827.3 114.465 1828.35 126.41L1858.24 123.772ZM1860.79 128.634C1858.08 124.45 1858.19 123.294 1858.24 123.772L1828.35 126.411C1828.91 132.773 1831.58 138.716 1835.62 144.952L1860.79 128.634ZM1873.18 144.602C1867.2 137.428 1863.36 132.593 1860.79 128.635L1835.62 144.952C1839.3 150.625 1844.26 156.754 1850.13 163.801L1873.18 144.602ZM1868.19 179.757L1875.72 159.407L1847.58 148.997L1840.06 169.347L1868.19 179.757ZM1834.01 196.692C1834.69 195.894 1837.49 193.089 1857 189.273L1851.24 159.831C1832.55 163.487 1819.38 167.523 1811.09 177.337L1834.01 196.692ZM1829.28 221.187C1830.56 201.787 1833.18 197.676 1834.01 196.692L1811.09 177.337C1803.31 186.546 1800.62 199.896 1799.35 219.222L1829.28 221.187ZM1797.81 244.856L1820.85 233.706L1807.78 206.703L1784.74 217.852L1797.81 244.856ZM1776.91 239.323C1778.49 240.458 1780.2 241.741 1782.07 243.191L1800.49 219.517C1798.36 217.86 1796.33 216.337 1794.39 214.943L1776.91 239.323ZM1768.62 189.815C1773.33 201.961 1773.54 213.361 1771.06 223.622L1800.23 230.645C1804.05 214.796 1803.64 197.133 1796.58 178.957L1768.62 189.815ZM1799.36 145.549C1795.07 157.144 1786.57 165.922 1776.19 170.824L1789.01 197.949C1806.19 189.83 1820.37 175.207 1827.49 155.957L1799.36 145.549ZM1772.55 87.2712C1796.04 95.9618 1808.05 122.054 1799.36 145.549L1827.49 155.957C1841.93 116.922 1821.99 73.5729 1782.96 59.1343L1772.55 87.2712ZM1722.86 99.7119C1734.93 86.1111 1754.52 80.6023 1772.55 87.2712L1782.96 59.1343C1752.94 48.0329 1720.42 57.2614 1700.42 79.803L1722.86 99.7119ZM1697.71 104.425C1701.87 104.143 1706.02 104.254 1710.09 104.677L1713.19 74.838C1707.58 74.2538 1701.71 74.0858 1695.69 74.4937L1697.71 104.425ZM1667.8 114.953C1676.95 108.326 1687.29 105.132 1697.71 104.425L1695.69 74.4937C1680.45 75.5259 1664.53 80.2819 1650.2 90.6557L1667.8 114.953ZM1645.36 111.397L1650.12 114.894L1667.88 90.7148L1663.12 87.2176L1645.36 111.397ZM1646.5 76.9892L1640.17 94.1028L1668.31 104.512L1674.64 87.3979L1646.5 76.9892ZM1676.41 63.8662C1672.33 65.1075 1666.7 66.2225 1658.55 67.3302L1662.59 97.057C1671.3 95.8728 1678.78 94.5022 1685.14 92.5663L1676.41 63.8662ZM1682.38 61.1284C1682.31 61.2034 1681.26 62.3894 1676.41 63.8662L1685.15 92.5663C1693.07 90.1549 1699.34 86.8342 1704.14 81.7837L1682.38 61.1284ZM1684.78 55.0263C1683.57 59.9756 1682.44 61.0703 1682.38 61.1284L1704.14 81.7837C1708.92 76.7432 1711.93 70.2961 1713.92 62.146L1684.78 55.0263ZM1687.27 35.8798C1686.66 44.6919 1685.83 50.7222 1684.78 55.0262L1713.92 62.1462C1715.57 55.3999 1716.54 47.4051 1717.2 37.9585L1687.27 35.8798ZM1717.58 12.8275L1695.7 23.4175L1708.77 50.4208L1730.65 39.8309L1717.58 12.8275ZM1753.44 26.7295C1753.3 26.7421 1748.92 27.2863 1733.63 14.7358L1714.6 37.9226C1730.44 50.9277 1743.1 57.7567 1756.07 56.6138L1753.44 26.7295ZM1759.38 23.8131C1755.26 26.5706 1753.62 26.7138 1753.44 26.7295L1756.07 56.6138C1762.98 56.0055 1769.44 53.1754 1776.06 48.7484L1759.38 23.8131ZM1771.39 14.0192C1766.37 18.5898 1762.53 21.7044 1759.38 23.8132L1776.06 48.7484C1781.01 45.4383 1786.11 41.1922 1791.59 36.1981L1771.39 14.0192ZM1811.67 20.2503L1786.68 11.0353L1776.3 39.182L1801.29 48.397L1811.67 20.2503ZM1824.7 47.6055C1823.54 43.597 1822.47 38.5275 1821.24 31.6712L1791.71 36.9761C1792.99 44.068 1794.28 50.3866 1795.89 55.9444L1824.7 47.6055ZM1827.83 54.9921C1827.54 54.6704 1826.3 53.1244 1824.7 47.6056L1795.89 55.9444C1798.1 63.5805 1800.96 69.9558 1805.49 75.0071L1827.83 54.9921Z" fill="#6126D8" mask="url(#path-1-outside-1_2111_2947)"/>
<path d="M542 209.469C551.469 222.125 564.875 228.453 582.219 228.453C599.562 228.453 612.969 222.125 622.438 209.469C632 196.719 636.781 178.766 636.781 155.609C636.781 132.453 632 114.547 622.438 101.891C612.969 89.1406 599.562 82.7656 582.219 82.7656C564.875 82.7656 551.469 89.1406 542 101.891C532.531 114.547 527.797 132.453 527.797 155.609C527.797 178.766 532.531 196.719 542 209.469ZM521.609 81.5C536.422 63.4062 556.625 54.3594 582.219 54.3594C607.812 54.3594 628.062 63.4062 642.969 81.5C657.781 99.6875 665.188 124.391 665.188 155.609C665.188 186.922 657.781 211.625 642.969 229.719C628.062 247.906 607.812 257 582.219 257C556.625 257 536.422 247.906 521.609 229.719C506.703 211.625 499.25 186.922 499.25 155.609C499.25 124.391 506.703 99.6875 521.609 81.5ZM716.234 187.672V188.234C716.234 199.578 718.531 208.578 723.125 215.234C729.125 224.047 738.828 228.453 752.234 228.453C765.734 228.453 775.484 224 781.484 215.094C785.984 208.344 788.234 199.297 788.234 187.953C788.234 176.516 785.984 167.422 781.484 160.672C775.484 151.766 765.734 147.312 752.234 147.312C738.828 147.312 729.125 151.719 723.125 160.531C718.531 167.281 716.234 176.328 716.234 187.672ZM752.234 257C747.453 257 742.859 256.578 738.453 255.734L737.188 255.453C729.031 253.672 722.047 250.344 716.234 245.469V321.547H687.688V118.906H716.234V130.297C721.953 125.516 728.797 122.234 736.766 120.453L738.172 120.172C742.672 119.328 747.359 118.906 752.234 118.906C757.109 118.906 761.797 119.328 766.297 120.172L767.844 120.453C783.031 123.641 794.984 131.141 803.703 142.953C812.422 154.953 816.781 169.953 816.781 187.953C816.781 205.953 812.375 220.953 803.562 232.953C794.75 244.859 782.703 252.359 767.422 255.453L766.016 255.734C761.609 256.578 757.016 257 752.234 257ZM869.375 173.328H938.281C934.25 156.078 922.766 147.453 903.828 147.453C884.891 147.453 873.406 156.078 869.375 173.328ZM968.375 187.953V200.328H868.953C872.609 219.078 884.703 228.453 905.234 228.453C913.578 228.453 920.891 226.906 927.172 223.812C933.359 220.625 937.812 216.266 940.531 210.734L966.125 223.25C960.969 233.844 953 242.094 942.219 248C931.438 254 919.109 257 905.234 257C885.172 257 869.188 250.719 857.281 238.156C845.281 225.688 839.281 208.953 839.281 187.953C839.281 166.953 845.141 150.219 856.859 137.75C868.578 125.188 884.234 118.906 903.828 118.906C920.984 118.906 935.188 123.781 946.438 133.531C957.688 143.188 964.625 156.453 967.25 173.328C968 177.641 968.375 182.094 968.375 186.688V187.953ZM1019.42 187.953V257H990.875V119.188H1019.42V130.578C1025.14 125.797 1031.98 122.469 1039.95 120.594L1041.36 120.312C1045.86 119.469 1050.55 119.047 1055.42 119.047V147.594C1042.02 147.594 1032.31 152 1026.31 160.812C1021.72 167.562 1019.42 176.609 1019.42 187.953ZM1160.61 188.094V187.812C1160.61 176.469 1158.31 167.422 1153.72 160.672C1147.72 151.859 1138.02 147.453 1124.61 147.453C1111.11 147.453 1101.36 151.859 1095.36 160.672C1090.86 167.516 1088.61 176.609 1088.61 187.953C1088.61 199.297 1090.86 208.344 1095.36 215.094C1101.36 224 1111.11 228.453 1124.61 228.453C1138.02 228.453 1147.72 224.047 1153.72 215.234C1158.31 208.484 1160.61 199.438 1160.61 188.094ZM1160.61 130.297V119.047H1189.16V257H1160.61V245.609C1154.89 250.391 1148.09 253.672 1140.22 255.453L1138.67 255.734C1134.17 256.578 1129.48 257 1124.61 257C1119.73 257 1115.05 256.578 1110.55 255.734L1109 255.453C1093.81 252.266 1081.91 244.719 1073.28 232.812C1064.47 220.906 1060.06 205.953 1060.06 187.953C1060.06 169.859 1064.47 154.812 1073.28 142.812C1082.09 130.906 1094.14 123.453 1109.42 120.453L1110.83 120.031C1115.23 119.281 1119.83 118.906 1124.61 118.906C1129.39 118.906 1133.98 119.281 1138.39 120.031L1139.8 120.453C1147.86 122.141 1154.8 125.422 1160.61 130.297ZM1231.62 203.141V149.844L1211.66 147.453V118.906L1231.62 121.297V75.1719H1260.17V121.297L1280.14 118.906V147.453L1260.17 149.844V203.141V213.828C1260.17 219.641 1261.44 223.719 1263.97 226.062C1265.84 227.656 1268.7 228.453 1272.55 228.453H1280V257H1272.55C1260.27 257 1250.38 253.016 1242.88 245.047C1235.38 237.078 1231.62 226.672 1231.62 213.828V203.141ZM1304.19 257V118.906H1332.73V257H1304.19ZM1329.5 96.8281C1326.5 99.9219 1322.84 101.469 1318.53 101.469C1314.12 101.469 1310.42 99.9219 1307.42 96.8281C1304.33 93.7344 1302.78 90.0313 1302.78 85.7188C1302.78 81.4062 1304.33 77.7031 1307.42 74.6094C1310.42 71.6094 1314.12 70.1094 1318.53 70.1094C1322.84 70.1094 1326.5 71.6094 1329.5 74.6094C1332.59 77.7031 1334.14 81.4062 1334.14 85.7188C1334.14 90.0313 1332.59 93.7344 1329.5 96.8281ZM1392.08 215.234C1398.08 224.047 1407.83 228.453 1421.33 228.453C1434.83 228.453 1444.58 224.047 1450.58 215.234C1455.17 208.391 1457.47 199.297 1457.47 187.953C1457.47 176.609 1455.17 167.516 1450.58 160.672C1444.58 151.859 1434.83 147.453 1421.33 147.453C1407.83 147.453 1398.08 151.859 1392.08 160.672C1387.58 167.516 1385.33 176.609 1385.33 187.953C1385.33 199.297 1387.58 208.391 1392.08 215.234ZM1374.36 137.75C1386.08 125.188 1401.73 118.906 1421.33 118.906C1440.92 118.906 1456.58 125.188 1468.3 137.75C1480.02 150.219 1485.88 166.953 1485.88 187.953C1485.88 208.953 1480.02 225.688 1468.3 238.156C1456.58 250.719 1440.92 257 1421.33 257C1401.73 257 1386.08 250.719 1374.36 238.156C1362.64 225.688 1356.78 208.953 1356.78 187.953C1356.78 166.953 1362.64 150.219 1374.36 137.75ZM1567.44 118.906C1577.28 118.906 1586.19 120.922 1594.16 124.953C1604.38 130.109 1612.3 138.125 1617.92 149C1623.64 159.969 1626.5 172.953 1626.5 187.953V257H1597.95V187.953C1597.95 176.609 1596.03 167.562 1592.19 160.812C1587.12 151.906 1578.88 147.453 1567.44 147.453C1556.19 147.453 1548.03 151.766 1542.97 160.391C1539.03 166.953 1537.02 175.812 1536.92 186.969V257H1508.38V119.047H1536.92V127.344C1538.14 126.5 1539.41 125.703 1540.72 124.953C1548.69 120.922 1557.59 118.906 1567.44 118.906ZM1694.84 228.031C1697.28 228.312 1699.91 228.453 1702.72 228.453C1705.53 228.453 1708.16 228.312 1710.59 228.031C1713.78 227.656 1716.55 227 1718.89 226.062C1724.89 223.719 1727.89 219.875 1727.89 214.531C1727.89 209.188 1724.89 205.391 1718.89 203.141C1716.55 202.203 1713.78 201.547 1710.59 201.172C1708.16 200.891 1705.53 200.75 1702.72 200.75C1685.19 200.75 1671.83 196.297 1662.64 187.391C1654.95 179.891 1651.11 170.703 1651.11 159.828C1651.11 148.859 1654.95 139.672 1662.64 132.266C1671.83 123.359 1685.19 118.906 1702.72 118.906C1719.41 118.906 1732.34 122.984 1741.53 131.141C1749.22 137.984 1753.44 146.609 1754.19 157.016L1725.78 159.266C1725.59 154.766 1722.73 151.531 1717.2 149.562C1715.14 148.719 1712.7 148.156 1709.89 147.875C1707.64 147.594 1705.25 147.453 1702.72 147.453C1700.09 147.453 1697.66 147.594 1695.41 147.875C1692.5 148.25 1690.02 148.812 1687.95 149.562C1682.33 151.625 1679.52 155.047 1679.52 159.828C1679.52 164.609 1682.33 168.031 1687.95 170.094C1690.02 170.844 1692.5 171.406 1695.41 171.781C1697.66 172.062 1700.09 172.203 1702.72 172.203C1720.91 172.203 1734.83 176.844 1744.48 186.125C1752.45 193.812 1756.44 203.281 1756.44 214.531C1756.44 225.875 1752.45 235.391 1744.48 243.078C1734.83 252.359 1720.91 257 1702.72 257C1685.19 257 1671.59 252.688 1661.94 244.062C1653.97 236.938 1649.66 227.891 1649 216.922L1677.41 214.672C1677.5 220.016 1680.55 223.812 1686.55 226.062C1688.89 227 1691.66 227.656 1694.84 228.031Z" fill="#6126D8"/>
<path d="M11.25 54.3594H155.672V82.9062H97.7344V257H69.1875V82.9062H11.25V54.3594ZM230.203 188.094V187.812C230.203 176.469 227.906 167.422 223.312 160.672C217.312 151.859 207.609 147.453 194.203 147.453C180.703 147.453 170.953 151.859 164.953 160.672C160.453 167.516 158.203 176.609 158.203 187.953C158.203 199.297 160.453 208.344 164.953 215.094C170.953 224 180.703 228.453 194.203 228.453C207.609 228.453 217.312 224.047 223.312 215.234C227.906 208.484 230.203 199.438 230.203 188.094ZM230.203 130.297V119.047H258.75V257H230.203V245.609C224.484 250.391 217.688 253.672 209.812 255.453L208.266 255.734C203.766 256.578 199.078 257 194.203 257C189.328 257 184.641 256.578 180.141 255.734L178.594 255.453C163.406 252.266 151.5 244.719 142.875 232.812C134.062 220.906 129.656 205.953 129.656 187.953C129.656 169.859 134.062 154.812 142.875 142.812C151.688 130.906 163.734 123.453 179.016 120.453L180.422 120.031C184.828 119.281 189.422 118.906 194.203 118.906C198.984 118.906 203.578 119.281 207.984 120.031L209.391 120.453C217.453 122.141 224.391 125.422 230.203 130.297ZM376.031 160.672C370.031 151.859 360.328 147.453 346.922 147.453C333.422 147.453 323.672 151.906 317.672 160.812C313.078 167.562 310.781 176.609 310.781 187.953C310.781 199.391 313.078 208.484 317.672 215.234C323.672 224.141 333.422 228.594 346.922 228.594C360.328 228.594 370.031 224.141 376.031 215.234C380.625 208.578 382.922 199.578 382.922 188.234V187.672C382.922 176.422 380.625 167.422 376.031 160.672ZM332.859 255.734L331.312 255.453C316.125 252.266 304.172 244.766 295.453 232.953C286.734 220.953 282.375 205.953 282.375 187.953C282.375 169.953 286.781 154.953 295.594 142.953C304.406 131.047 316.453 123.547 331.734 120.453L333.141 120.172C337.547 119.328 342.141 118.906 346.922 118.906C351.703 118.906 356.297 119.328 360.703 120.172L361.969 120.453C370.125 122.234 377.109 125.562 382.922 130.438V119.047H411.469V261.219C411.469 282.219 405.234 298.953 392.766 311.422C380.203 323.984 363.516 330.266 342.703 330.266C328.359 330.266 315.891 327.312 305.297 321.406C294.797 315.406 286.781 306.875 281.25 295.812L306.844 283.156C310.219 290.094 315.609 295.109 323.016 298.203C328.641 300.547 335.203 301.719 342.703 301.719C369.516 301.719 382.922 288.219 382.922 261.219V245.609C377.203 250.391 370.359 253.672 362.391 255.453L360.844 255.734C356.438 256.578 351.797 257 346.922 257C342.047 257 337.359 256.578 332.859 255.734Z" fill="#6126D8"/>
</svg>
