<svg width="532" height="341" viewBox="0 0 532 341" fill="none" xmlns="http://www.w3.org/2000/svg">
<g clip-path="url(#clip0_2111_2948)">
<path d="M11.25 64.3594H155.672V92.9062H97.7344V267H69.1875V92.9062H11.25V64.3594ZM230.203 198.094V197.812C230.203 186.469 227.906 177.422 223.312 170.672C217.312 161.859 207.609 157.453 194.203 157.453C180.703 157.453 170.953 161.859 164.953 170.672C160.453 177.516 158.203 186.609 158.203 197.953C158.203 209.297 160.453 218.344 164.953 225.094C170.953 234 180.703 238.453 194.203 238.453C207.609 238.453 217.312 234.047 223.312 225.234C227.906 218.484 230.203 209.438 230.203 198.094ZM230.203 140.297V129.047H258.75V267H230.203V255.609C224.484 260.391 217.688 263.672 209.812 265.453L208.266 265.734C203.766 266.578 199.078 267 194.203 267C189.328 267 184.641 266.578 180.141 265.734L178.594 265.453C163.406 262.266 151.5 254.719 142.875 242.812C134.062 230.906 129.656 215.953 129.656 197.953C129.656 179.859 134.062 164.812 142.875 152.812C151.688 140.906 163.734 133.453 179.016 130.453L180.422 130.031C184.828 129.281 189.422 128.906 194.203 128.906C198.984 128.906 203.578 129.281 207.984 130.031L209.391 130.453C217.453 132.141 224.391 135.422 230.203 140.297ZM376.031 170.672C370.031 161.859 360.328 157.453 346.922 157.453C333.422 157.453 323.672 161.906 317.672 170.812C313.078 177.562 310.781 186.609 310.781 197.953C310.781 209.391 313.078 218.484 317.672 225.234C323.672 234.141 333.422 238.594 346.922 238.594C360.328 238.594 370.031 234.141 376.031 225.234C380.625 218.578 382.922 209.578 382.922 198.234V197.672C382.922 186.422 380.625 177.422 376.031 170.672ZM332.859 265.734L331.312 265.453C316.125 262.266 304.172 254.766 295.453 242.953C286.734 230.953 282.375 215.953 282.375 197.953C282.375 179.953 286.781 164.953 295.594 152.953C304.406 141.047 316.453 133.547 331.734 130.453L333.141 130.172C337.547 129.328 342.141 128.906 346.922 128.906C351.703 128.906 356.297 129.328 360.703 130.172L361.969 130.453C370.125 132.234 377.109 135.562 382.922 140.438V129.047H411.469V271.219C411.469 292.219 405.234 308.953 392.766 321.422C380.203 333.984 363.516 340.266 342.703 340.266C328.359 340.266 315.891 337.312 305.297 331.406C294.797 325.406 286.781 316.875 281.25 305.812L306.844 293.156C310.219 300.094 315.609 305.109 323.016 308.203C328.641 310.547 335.203 311.719 342.703 311.719C369.516 311.719 382.922 298.219 382.922 271.219V255.609C377.203 260.391 370.359 263.672 362.391 265.453L360.844 265.734C356.438 266.578 351.797 267 346.922 267C342.047 267 337.359 266.578 332.859 265.734Z" fill="#6126D8"/>
<path d="M11.25 64.3594H155.672V92.9062H97.7344V267H69.1875V92.9062H11.25V64.3594ZM230.203 198.094V197.812C230.203 186.469 227.906 177.422 223.312 170.672C217.312 161.859 207.609 157.453 194.203 157.453C180.703 157.453 170.953 161.859 164.953 170.672C160.453 177.516 158.203 186.609 158.203 197.953C158.203 209.297 160.453 218.344 164.953 225.094C170.953 234 180.703 238.453 194.203 238.453C207.609 238.453 217.312 234.047 223.312 225.234C227.906 218.484 230.203 209.438 230.203 198.094ZM230.203 140.297V129.047H258.75V267H230.203V255.609C224.484 260.391 217.688 263.672 209.812 265.453L208.266 265.734C203.766 266.578 199.078 267 194.203 267C189.328 267 184.641 266.578 180.141 265.734L178.594 265.453C163.406 262.266 151.5 254.719 142.875 242.812C134.062 230.906 129.656 215.953 129.656 197.953C129.656 179.859 134.062 164.812 142.875 152.812C151.688 140.906 163.734 133.453 179.016 130.453L180.422 130.031C184.828 129.281 189.422 128.906 194.203 128.906C198.984 128.906 203.578 129.281 207.984 130.031L209.391 130.453C217.453 132.141 224.391 135.422 230.203 140.297ZM376.031 170.672C370.031 161.859 360.328 157.453 346.922 157.453C333.422 157.453 323.672 161.906 317.672 170.812C313.078 177.562 310.781 186.609 310.781 197.953C310.781 209.391 313.078 218.484 317.672 225.234C323.672 234.141 333.422 238.594 346.922 238.594C360.328 238.594 370.031 234.141 376.031 225.234C380.625 218.578 382.922 209.578 382.922 198.234V197.672C382.922 186.422 380.625 177.422 376.031 170.672ZM332.859 265.734L331.312 265.453C316.125 262.266 304.172 254.766 295.453 242.953C286.734 230.953 282.375 215.953 282.375 197.953C282.375 179.953 286.781 164.953 295.594 152.953C304.406 141.047 316.453 133.547 331.734 130.453L333.141 130.172C337.547 129.328 342.141 128.906 346.922 128.906C351.703 128.906 356.297 129.328 360.703 130.172L361.969 130.453C370.125 132.234 377.109 135.562 382.922 140.438V129.047H411.469V271.219C411.469 292.219 405.234 308.953 392.766 321.422C380.203 333.984 363.516 340.266 342.703 340.266C328.359 340.266 315.891 337.312 305.297 331.406C294.797 325.406 286.781 316.875 281.25 305.812L306.844 293.156C310.219 300.094 315.609 305.109 323.016 308.203C328.641 310.547 335.203 311.719 342.703 311.719C369.516 311.719 382.922 298.219 382.922 271.219V255.609C377.203 260.391 370.359 263.672 362.391 265.453L360.844 265.734C356.438 266.578 351.797 267 346.922 267C342.047 267 337.359 266.578 332.859 265.734Z" fill="#6126D8"/>
<mask id="path-3-outside-1_2111_2948" maskUnits="userSpaceOnUse" x="286.429" y="-0.608032" width="246" height="242" fill="black">
<rect fill="white" x="286.429" y="-0.608032" width="246" height="242"/>
<path fill-rule="evenodd" clip-rule="evenodd" d="M469.378 57.2829C473.603 62.0001 481.202 65.3197 500.886 66.6059L510.99 88.2255C498.145 104.505 495.534 111.943 496.014 117.374C496.274 120.317 497.548 123.867 500.925 129.076C504.046 133.892 508.45 139.375 514.372 146.485L506.843 166.835C487.739 170.571 479.752 173.992 475.271 179.298C470.967 184.394 468.305 193.125 467.035 212.488L443.999 223.637C443.663 223.375 443.33 223.118 443.001 222.865V172.332C453.265 165.506 461.539 155.483 466.143 143.036C477.708 111.771 461.738 77.0507 430.472 65.4861C401.547 54.7871 369.665 67.6554 355.897 94.3985C350.031 93.5753 343.875 93.2643 337.598 93.6897C327.546 94.3708 317.306 96.9587 307.697 102.137L307.598 102.064C306.602 100.897 305.547 99.685 304.429 98.4244L313.288 74.4769C321.72 73.331 328.278 72.0881 333.497 70.4996C339.884 68.5555 343.545 66.3021 345.978 63.7394C348.398 61.1901 350.472 57.4192 352.072 50.8695C353.422 45.3444 354.321 38.3318 354.955 29.2025L376.835 18.6125C392.398 31.3903 400.92 34.5327 407.477 33.955C411.018 33.643 415.07 32.1564 420.44 28.5641C424.49 25.8547 428.962 22.1743 434.212 17.392L459.198 26.607C460.451 33.581 461.63 39.2752 463.014 44.0583C464.918 50.6358 466.972 54.5964 469.378 57.2829Z"/>
</mask>
<path fill-rule="evenodd" clip-rule="evenodd" d="M469.378 57.2829C473.603 62.0001 481.202 65.3197 500.886 66.6059L510.99 88.2255C498.145 104.505 495.534 111.943 496.014 117.374C496.274 120.317 497.548 123.867 500.925 129.076C504.046 133.892 508.45 139.375 514.372 146.485L506.843 166.835C487.739 170.571 479.752 173.992 475.271 179.298C470.967 184.394 468.305 193.125 467.035 212.488L443.999 223.637C443.663 223.375 443.33 223.118 443.001 222.865V172.332C453.265 165.506 461.539 155.483 466.143 143.036C477.708 111.771 461.738 77.0507 430.472 65.4861C401.547 54.7871 369.665 67.6554 355.897 94.3985C350.031 93.5753 343.875 93.2643 337.598 93.6897C327.546 94.3708 317.306 96.9587 307.697 102.137L307.598 102.064C306.602 100.897 305.547 99.685 304.429 98.4244L313.288 74.4769C321.72 73.331 328.278 72.0881 333.497 70.4996C339.884 68.5555 343.545 66.3021 345.978 63.7394C348.398 61.1901 350.472 57.4192 352.072 50.8695C353.422 45.3444 354.321 38.3318 354.955 29.2025L376.835 18.6125C392.398 31.3903 400.92 34.5327 407.477 33.955C411.018 33.643 415.07 32.1564 420.44 28.5641C424.49 25.8547 428.962 22.1743 434.212 17.392L459.198 26.607C460.451 33.581 461.63 39.2752 463.014 44.0583C464.918 50.6358 466.972 54.5964 469.378 57.2829Z" fill="#A3DDFF"/>
<path d="M500.886 66.6059L514.475 60.2546L510.718 52.2164L501.864 51.6378L500.886 66.6059ZM469.378 57.2829L480.552 47.2754L480.552 47.2753L469.378 57.2829ZM510.99 88.2255L522.766 97.517L528.496 90.2548L524.579 81.8743L510.99 88.2255ZM496.014 117.374L481.072 118.694L481.072 118.694L496.014 117.374ZM500.925 129.076L513.512 120.918L513.512 120.918L500.925 129.076ZM514.372 146.485L528.44 151.69L531.451 143.552L525.898 136.885L514.372 146.485ZM506.843 166.835L509.722 181.556L517.989 179.939L520.911 172.04L506.843 166.835ZM475.271 179.298L486.731 188.976L486.731 188.976L475.271 179.298ZM467.035 212.488L473.57 225.989L481.431 222.185L482.003 213.47L467.035 212.488ZM443.999 223.637L434.786 235.474L442.143 241.2L450.534 237.139L443.999 223.637ZM443.001 222.865H428.001V230.252L433.857 234.756L443.001 222.865ZM443.001 172.332L434.694 159.842L428.001 164.294V172.332H443.001ZM466.143 143.036L480.212 148.24L466.143 143.036ZM430.472 65.4861L425.269 79.5545L430.472 65.4861ZM355.897 94.3985L353.813 109.253L364.359 110.733L369.234 101.264L355.897 94.3985ZM337.598 93.6897L336.583 78.724H336.583L337.598 93.6897ZM307.697 102.137L298.818 114.226L306.463 119.841L314.813 115.341L307.697 102.137ZM307.598 102.064L296.189 111.802L297.318 113.124L298.719 114.154L307.598 102.064ZM304.429 98.4244L290.36 93.22L287.242 101.651L293.206 108.377L304.429 98.4244ZM313.288 74.4769L311.268 59.6135L302.344 60.8262L299.22 69.2725L313.288 74.4769ZM333.497 70.4996L337.864 84.8496L337.865 84.8496L333.497 70.4996ZM345.978 63.7394L356.856 74.067L356.856 74.067L345.978 63.7394ZM352.072 50.8695L337.501 47.3095L337.501 47.3096L352.072 50.8695ZM354.955 29.2025L348.42 15.7008L340.594 19.4889L339.991 28.1631L354.955 29.2025ZM376.835 18.6125L386.353 7.01915L378.937 0.930555L370.3 5.11087L376.835 18.6125ZM407.477 33.955L406.161 19.0128L406.161 19.0129L407.477 33.955ZM420.44 28.5641L428.78 41.0317L428.78 41.0317L420.44 28.5641ZM434.212 17.392L439.403 3.31861L430.851 0.164454L424.112 6.30248L434.212 17.392ZM459.198 26.607L473.962 23.9545L472.443 15.5044L464.388 12.5336L459.198 26.607ZM463.014 44.0583L477.423 39.889L477.423 39.8888L463.014 44.0583ZM501.864 51.6378C492.563 51.0301 487.142 49.9905 483.949 48.9583C481.086 48.0329 480.573 47.2995 480.552 47.2754L458.204 67.2904C466.715 76.7926 479.836 80.2624 499.908 81.574L501.864 51.6378ZM524.579 81.8743L514.475 60.2546L487.297 72.9572L497.401 94.5768L524.579 81.8743ZM510.956 116.055C511.016 116.737 510.641 116.245 512.024 113.367C513.526 110.243 516.616 105.312 522.766 97.517L499.215 78.9341C486.518 95.026 480.017 106.748 481.072 118.694L510.956 116.055ZM513.512 120.918C510.8 116.733 510.913 115.577 510.956 116.055L481.072 118.694C481.634 125.056 484.296 131 488.337 137.235L513.512 120.918ZM525.898 136.885C519.923 129.712 516.078 124.876 513.512 120.918L488.337 137.235C492.015 142.908 496.977 149.038 502.846 156.085L525.898 136.885ZM520.911 172.04L528.44 151.69L500.304 141.28L492.775 161.63L520.911 172.04ZM486.731 188.976C487.405 188.178 490.209 185.373 509.722 181.556L503.964 152.114C485.268 155.77 472.098 159.806 463.811 169.62L486.731 188.976ZM482.003 213.47C483.276 194.071 485.901 189.959 486.731 188.976L463.811 169.62C456.033 178.829 453.335 192.179 452.067 211.506L482.003 213.47ZM450.534 237.139L473.57 225.989L460.5 198.986L437.464 210.136L450.534 237.139ZM433.857 234.756C434.162 234.99 434.472 235.23 434.786 235.474L453.213 211.8C452.854 211.521 452.498 211.246 452.144 210.974L433.857 234.756ZM428.001 172.332V222.865H458.001V172.332H428.001ZM452.075 137.832C448.609 147.203 442.405 154.715 434.694 159.842L451.307 184.823C464.126 176.297 474.47 163.763 480.212 148.24L452.075 137.832ZM425.269 79.5545C448.764 88.2452 460.766 114.337 452.075 137.832L480.212 148.24C494.65 109.205 474.711 65.8562 435.676 51.4176L425.269 79.5545ZM369.234 101.264C379.573 81.1812 403.542 71.5182 425.269 79.5545L435.676 51.4176C399.553 38.056 359.758 54.1296 342.561 87.5326L369.234 101.264ZM338.612 108.655C343.742 108.308 348.854 108.557 353.813 109.253L357.982 79.5441C351.208 78.5935 344.007 78.2209 336.583 78.724L338.612 108.655ZM314.813 115.341C322.315 111.299 330.43 109.21 338.612 108.655L336.583 78.724C324.662 79.5318 312.297 82.6187 300.581 88.9318L314.813 115.341ZM298.719 114.154L298.818 114.226L316.577 90.0471L316.478 89.9745L298.719 114.154ZM293.206 108.377C294.268 109.574 295.261 110.714 296.189 111.802L319.007 92.3259C317.944 91.0797 316.826 89.7961 315.652 88.4722L293.206 108.377ZM299.22 69.2725L290.36 93.22L318.497 103.629L327.356 79.6812L299.22 69.2725ZM329.129 56.1495C325.051 57.3908 319.419 58.5058 311.268 59.6135L315.308 89.3403C324.021 88.1562 331.504 86.7855 337.864 84.8496L329.129 56.1495ZM335.099 53.4117C335.028 53.4868 333.981 54.6727 329.129 56.1496L337.865 84.8496C345.787 82.4382 352.062 79.1175 356.856 74.067L335.099 53.4117ZM337.501 47.3096C336.292 52.2589 335.155 53.3536 335.099 53.4118L356.856 74.067C361.642 69.0266 364.653 62.5795 366.644 54.4294L337.501 47.3096ZM339.991 28.1631C339.379 36.9752 338.552 43.0055 337.501 47.3095L366.644 54.4295C368.292 47.6832 369.263 39.6884 369.919 30.2418L339.991 28.1631ZM370.3 5.11087L348.42 15.7008L361.49 42.7041L383.37 32.1142L370.3 5.11087ZM406.161 19.0129C406.018 19.0254 401.64 19.5696 386.353 7.01915L367.317 30.2059C383.157 43.211 395.821 50.04 408.794 48.8971L406.161 19.0129ZM412.1 16.0965C407.977 18.854 406.339 18.9971 406.161 19.0128L408.793 48.8971C415.698 48.2888 422.162 45.4588 428.78 41.0317L412.1 16.0965ZM424.112 6.30248C419.094 10.8731 415.252 13.9877 412.1 16.0965L428.78 41.0317C433.728 37.7216 438.83 33.4755 444.313 28.4815L424.112 6.30248ZM464.388 12.5336L439.403 3.31861L429.022 31.4653L454.008 40.6803L464.388 12.5336ZM477.423 39.8888C476.263 35.8803 475.193 30.8108 473.962 23.9545L444.434 29.2595C445.709 36.3512 446.997 42.67 448.605 48.2278L477.423 39.8888ZM480.552 47.2753C480.264 46.9537 479.02 45.4077 477.423 39.889L448.605 48.2276C450.815 55.8638 453.68 62.2391 458.205 67.2904L480.552 47.2753Z" fill="#6126D8" mask="url(#path-3-outside-1_2111_2948)"/>
</g>
<defs>
<clipPath id="clip0_2111_2948">
<rect width="532" height="341" fill="white"/>
</clipPath>
</defs>
</svg>
