<svg width="589" height="354" viewBox="0 0 589 354" fill="none" xmlns="http://www.w3.org/2000/svg">
<path d="M496.421 280.296L499.651 278.824L499.916 275.285C501.812 250.02 506.115 242.451 510.333 238.746L506.373 234.238L510.333 238.746C512.88 236.508 517.055 234.218 525.153 231.959C531.041 230.316 538.163 228.905 547.144 227.381L550.529 226.806L551.749 223.596L563.968 191.424L565.262 188.015L562.833 185.296C556.803 178.546 552.327 172.976 549.113 168.069C544.867 161.588 543.524 157.304 543.271 154.071C542.807 148.158 545.484 138.829 562.097 118.986L564.561 116.043L562.922 112.573L549.511 84.1676L548.026 81.0225L544.559 80.7481C532.896 79.8249 524.239 78.6089 517.603 76.9197L516.141 82.6647L517.603 76.9197C509.798 74.933 506.018 72.5909 503.741 70.3873C501.446 68.1657 498.996 64.4569 496.745 56.7947C494.892 50.4882 493.415 42.3697 492.054 31.5718L491.603 27.9978L488.237 26.7154L457.402 14.9692L454.042 13.6891L451.329 16.0487C432.118 32.7559 423.007 37.1678 415.962 37.5723L416.306 43.5624L415.962 37.5723C409.162 37.9626 399.636 34.8368 378.857 20.3876L376.052 18.4375L372.944 19.8535L342.835 33.5696L339.325 35.1682L339.322 39.0243C339.312 49.6687 338.883 57.5946 337.885 63.7188C336.667 71.187 334.847 74.3396 333.372 76.009L333.372 76.0091C331.918 77.6555 329.038 79.8526 321.741 81.9563C316.21 83.5509 309.006 84.8516 299.402 86.0106L295.801 86.4452L294.512 89.8365L283.135 119.784L292.833 126.306C304.794 115.168 322.424 107.973 342.289 107.973C349.515 107.973 356.454 108.926 362.937 110.679L366.563 111.66L369.03 108.826C388.288 86.6945 419.999 77.7688 448.995 88.8129C486.155 102.967 504.805 144.565 490.651 181.726C481.839 204.86 462.395 220.825 439.979 226.163L435.368 227.26V231.999V270.982V274.765L438.781 276.396C444.122 278.949 451.468 283.734 462.108 292.298L464.991 294.618L468.358 293.084L496.421 280.296Z" fill="#A3DDFF" stroke="#6126D8" stroke-width="12"/>
<path d="M11.8015 66.3594H156.223V94.9062H98.2859V269H69.739V94.9062H11.8015V66.3594ZM230.755 200.094V199.812C230.755 188.469 228.458 179.422 223.864 172.672C217.864 163.859 208.161 159.453 194.755 159.453C181.255 159.453 171.505 163.859 165.505 172.672C161.005 179.516 158.755 188.609 158.755 199.953C158.755 211.297 161.005 220.344 165.505 227.094C171.505 236 181.255 240.453 194.755 240.453C208.161 240.453 217.864 236.047 223.864 227.234C228.458 220.484 230.755 211.438 230.755 200.094ZM230.755 142.297V131.047H259.302V269H230.755V257.609C225.036 262.391 218.239 265.672 210.364 267.453L208.817 267.734C204.317 268.578 199.63 269 194.755 269C189.88 269 185.192 268.578 180.692 267.734L179.145 267.453C163.958 264.266 152.052 256.719 143.427 244.812C134.614 232.906 130.208 217.953 130.208 199.953C130.208 181.859 134.614 166.812 143.427 154.812C152.239 142.906 164.286 135.453 179.567 132.453L180.973 132.031C185.38 131.281 189.973 130.906 194.755 130.906C199.536 130.906 204.13 131.281 208.536 132.031L209.942 132.453C218.005 134.141 224.942 137.422 230.755 142.297ZM376.583 172.672C370.583 163.859 360.88 159.453 347.473 159.453C333.973 159.453 324.223 163.906 318.223 172.812C313.63 179.562 311.333 188.609 311.333 199.953C311.333 211.391 313.63 220.484 318.223 227.234C324.223 236.141 333.973 240.594 347.473 240.594C360.88 240.594 370.583 236.141 376.583 227.234C381.177 220.578 383.473 211.578 383.473 200.234V199.672C383.473 188.422 381.177 179.422 376.583 172.672ZM333.411 267.734L331.864 267.453C316.677 264.266 304.723 256.766 296.005 244.953C287.286 232.953 282.927 217.953 282.927 199.953C282.927 181.953 287.333 166.953 296.145 154.953C304.958 143.047 317.005 135.547 332.286 132.453L333.692 132.172C338.098 131.328 342.692 130.906 347.473 130.906C352.255 130.906 356.848 131.328 361.255 132.172L362.52 132.453C370.677 134.234 377.661 137.562 383.473 142.438V131.047H412.02V273.219C412.02 294.219 405.786 310.953 393.317 323.422C380.755 335.984 364.067 342.266 343.255 342.266C328.911 342.266 316.442 339.312 305.848 333.406C295.348 327.406 287.333 318.875 281.802 307.812L307.395 295.156C310.77 302.094 316.161 307.109 323.567 310.203C329.192 312.547 335.755 313.719 343.255 313.719C370.067 313.719 383.473 300.219 383.473 273.219V257.609C377.755 262.391 370.911 265.672 362.942 267.453L361.395 267.734C356.989 268.578 352.348 269 347.473 269C342.598 269 337.911 268.578 333.411 267.734Z" fill="#6126D8"/>
</svg>
