<svg width="589" height="355" viewBox="0 0 589 355" fill="none" xmlns="http://www.w3.org/2000/svg">
<path d="M337.885 64.6157C336.667 72.0839 334.847 75.2364 333.372 76.9059L333.372 76.906C331.918 78.5524 329.038 80.7495 321.741 82.8532C316.21 84.4478 309.006 85.7485 299.403 86.9075L295.801 87.3421L294.512 90.7334L283.135 120.681L292.833 127.203C304.794 116.065 322.424 108.87 342.289 108.87C349.515 108.87 356.454 109.823 362.937 111.576L366.563 112.557L369.03 109.723C388.288 87.5913 419.999 78.6657 448.995 89.7097C486.155 103.864 504.805 145.462 490.651 182.622C481.839 205.757 462.395 221.721 439.979 227.059L435.368 228.157V232.896V271.879V275.662L438.781 277.293C444.122 279.846 451.468 284.631 462.108 293.195L464.991 295.515L468.358 293.98L496.421 281.193L499.651 279.721L499.916 276.182C501.812 250.917 506.115 243.347 510.333 239.642L506.373 235.135L510.333 239.642C512.88 237.405 517.055 235.114 525.153 232.855C531.041 231.213 538.163 229.802 547.144 228.278L550.529 227.703L551.749 224.493L563.968 192.321L565.262 188.912L562.833 186.193C556.803 179.443 552.327 173.872 549.113 168.966C544.867 162.485 543.524 158.201 543.271 154.967C542.807 149.055 545.484 139.726 562.097 119.883L564.561 116.94L562.922 113.469L549.511 85.0645L548.026 81.9194L544.559 81.645C532.896 80.7218 524.239 79.5058 517.603 77.8166L516.141 83.5616L517.603 77.8166C509.798 75.8298 506.018 73.4878 503.741 71.2842C501.446 69.0625 498.996 65.3537 496.745 57.6916C494.892 51.3851 493.415 43.2666 492.054 32.4687L491.603 28.8947L488.237 27.6123L457.402 15.866L454.042 14.586L451.329 16.9456C432.118 33.6527 423.007 38.0647 415.962 38.4692L416.306 44.4593L415.962 38.4692C409.162 38.8595 399.636 35.7337 378.857 21.2845L376.052 19.3344L372.944 20.7504L342.835 34.4665L339.325 36.065L339.322 39.9212C339.312 50.5656 338.883 58.4915 337.885 64.6157ZM337.885 64.6157L343.807 65.5812M337.885 64.6157L343.807 65.5812M343.807 65.5812C342.486 73.6848 340.361 78.0578 337.869 80.8786C335.395 83.6787 331.337 86.3312 323.403 88.6184L345.322 39.9266C345.312 50.6705 344.883 58.9774 343.807 65.5812Z" fill="#F8F8F8" stroke="#CCCCCC" stroke-width="12"/>
<path d="M11.8015 67.2563H156.223V95.8031H98.2859V269.897H69.739V95.8031H11.8015V67.2563ZM230.755 200.991V200.709C230.755 189.366 228.458 180.319 223.864 173.569C217.864 164.756 208.161 160.35 194.755 160.35C181.255 160.35 171.505 164.756 165.505 173.569C161.005 180.413 158.755 189.506 158.755 200.85C158.755 212.194 161.005 221.241 165.505 227.991C171.505 236.897 181.255 241.35 194.755 241.35C208.161 241.35 217.864 236.944 223.864 228.131C228.458 221.381 230.755 212.334 230.755 200.991ZM230.755 143.194V131.944H259.302V269.897H230.755V258.506C225.036 263.288 218.239 266.569 210.364 268.35L208.817 268.631C204.317 269.475 199.63 269.897 194.755 269.897C189.88 269.897 185.192 269.475 180.692 268.631L179.145 268.35C163.958 265.163 152.052 257.616 143.427 245.709C134.614 233.803 130.208 218.85 130.208 200.85C130.208 182.756 134.614 167.709 143.427 155.709C152.239 143.803 164.286 136.35 179.567 133.35L180.973 132.928C185.38 132.178 189.973 131.803 194.755 131.803C199.536 131.803 204.13 132.178 208.536 132.928L209.942 133.35C218.005 135.038 224.942 138.319 230.755 143.194ZM376.583 173.569C370.583 164.756 360.88 160.35 347.473 160.35C333.973 160.35 324.223 164.803 318.223 173.709C313.63 180.459 311.333 189.506 311.333 200.85C311.333 212.288 313.63 221.381 318.223 228.131C324.223 237.038 333.973 241.491 347.473 241.491C360.88 241.491 370.583 237.038 376.583 228.131C381.177 221.475 383.473 212.475 383.473 201.131V200.569C383.473 189.319 381.177 180.319 376.583 173.569ZM333.411 268.631L331.864 268.35C316.677 265.163 304.723 257.663 296.005 245.85C287.286 233.85 282.927 218.85 282.927 200.85C282.927 182.85 287.333 167.85 296.145 155.85C304.958 143.944 317.005 136.444 332.286 133.35L333.692 133.069C338.098 132.225 342.692 131.803 347.473 131.803C352.255 131.803 356.848 132.225 361.255 133.069L362.52 133.35C370.677 135.131 377.661 138.459 383.473 143.334V131.944H412.02V274.116C412.02 295.116 405.786 311.85 393.317 324.319C380.755 336.881 364.067 343.163 343.255 343.163C328.911 343.163 316.442 340.209 305.848 334.303C295.348 328.303 287.333 319.772 281.802 308.709L307.395 296.053C310.77 302.991 316.161 308.006 323.567 311.1C329.192 313.444 335.755 314.616 343.255 314.616C370.067 314.616 383.473 301.116 383.473 274.116V258.506C377.755 263.288 370.911 266.569 362.942 268.35L361.395 268.631C356.989 269.475 352.348 269.897 347.473 269.897C342.598 269.897 337.911 269.475 333.411 268.631Z" fill="#CCCCCC"/>
</svg>
